<mxfile host="Electron" modified="2023-06-30T14:41:48.582Z" agent="Mozilla/5.0 (Macintosh; Intel Mac OS X 10_15_7) AppleWebKit/537.36 (KHTML, like Gecko) draw.io/21.5.1 Chrome/112.0.5615.204 Electron/24.6.0 Safari/537.36" etag="EO6NcqCupSGF2O5PnKHj" version="21.5.1" type="device">
  <diagram id="2FZCEFIGFviBtUF47QQc" name="Page-1">
    <mxGraphModel dx="1819" dy="1054" grid="1" gridSize="10" guides="1" tooltips="1" connect="1" arrows="1" fold="1" page="1" pageScale="1" pageWidth="850" pageHeight="1100" math="0" shadow="0">
      <root>
        <mxCell id="0" />
        <mxCell id="1" parent="0" />
        <mxCell id="kZlyT9btExikWkIdY84d-9" value="" style="rounded=0;whiteSpace=wrap;html=1;dashed=1;glass=1;shadow=1;strokeWidth=2;fillColor=none;" parent="1" vertex="1">
          <mxGeometry x="20" y="20" width="440" height="430" as="geometry" />
        </mxCell>
        <mxCell id="kZlyT9btExikWkIdY84d-12" value="" style="group" parent="1" vertex="1" connectable="0">
          <mxGeometry x="21.5" y="20" width="440" height="400" as="geometry" />
        </mxCell>
        <mxCell id="kZlyT9btExikWkIdY84d-10" value="Browser" style="text;html=1;strokeColor=none;fillColor=none;align=center;verticalAlign=middle;whiteSpace=wrap;rounded=0;shadow=1;glass=1;dashed=1;fontSize=14;" parent="kZlyT9btExikWkIdY84d-12" vertex="1">
          <mxGeometry x="23.5" y="6" width="40" height="20" as="geometry" />
        </mxCell>
        <mxCell id="-r5Mu0k7ATpPsQTbyTsy-1" style="edgeStyle=orthogonalEdgeStyle;rounded=0;orthogonalLoop=1;jettySize=auto;html=1;exitX=0.5;exitY=0;exitDx=0;exitDy=0;entryX=0.5;entryY=1;entryDx=0;entryDy=0;entryPerimeter=0;" parent="1" source="-r5Mu0k7ATpPsQTbyTsy-7" target="-r5Mu0k7ATpPsQTbyTsy-4" edge="1">
          <mxGeometry x="520" y="19.5" as="geometry">
            <mxPoint x="731.5" y="129" as="targetPoint" />
            <mxPoint x="644.5" y="369.5" as="sourcePoint" />
            <Array as="points" />
          </mxGeometry>
        </mxCell>
        <mxCell id="-r5Mu0k7ATpPsQTbyTsy-2" value="" style="rounded=0;whiteSpace=wrap;html=1;dashed=1;glass=1;shadow=1;strokeWidth=2;fillColor=none;" parent="1" vertex="1">
          <mxGeometry x="520" y="19" width="440" height="431" as="geometry" />
        </mxCell>
        <mxCell id="-r5Mu0k7ATpPsQTbyTsy-3" value="Ellucian Cloud" style="text;html=1;strokeColor=none;fillColor=none;align=center;verticalAlign=middle;whiteSpace=wrap;rounded=0;shadow=1;glass=1;dashed=1;fontSize=14;" parent="1" vertex="1">
          <mxGeometry x="533" y="22" width="96.5" height="22" as="geometry" />
        </mxCell>
        <mxCell id="-r5Mu0k7ATpPsQTbyTsy-4" value="Banner&lt;br&gt;Storage" style="shape=cylinder3;whiteSpace=wrap;html=1;boundedLbl=1;backgroundOutline=1;size=15;" parent="1" vertex="1">
          <mxGeometry x="795" y="55.5" width="60" height="80" as="geometry" />
        </mxCell>
        <mxCell id="-r5Mu0k7ATpPsQTbyTsy-6" value="Ethos&lt;br&gt;Integration" style="rounded=1;whiteSpace=wrap;html=1;" parent="1" vertex="1">
          <mxGeometry x="675" y="340" width="130" height="69" as="geometry" />
        </mxCell>
        <mxCell id="-r5Mu0k7ATpPsQTbyTsy-7" value="Ellucian&lt;br&gt;EEDM &amp;amp; BP APIs" style="rounded=1;whiteSpace=wrap;html=1;" parent="1" vertex="1">
          <mxGeometry x="760" y="203.5" width="130" height="69" as="geometry" />
        </mxCell>
        <mxCell id="-r5Mu0k7ATpPsQTbyTsy-12" value="" style="edgeStyle=orthogonalEdgeStyle;rounded=0;orthogonalLoop=1;jettySize=auto;html=1;entryX=0;entryY=0.5;entryDx=0;entryDy=0;" parent="1" source="dZhch4pQs4KgktvyILKv-1" target="-r5Mu0k7ATpPsQTbyTsy-6" edge="1">
          <mxGeometry relative="1" as="geometry">
            <mxPoint x="490" y="550" as="sourcePoint" />
            <mxPoint x="569" y="404.5" as="targetPoint" />
            <Array as="points">
              <mxPoint x="490" y="375" />
            </Array>
          </mxGeometry>
        </mxCell>
        <mxCell id="dZhch4pQs4KgktvyILKv-1" value="" style="shape=image;verticalLabelPosition=bottom;labelBackgroundColor=default;verticalAlign=top;aspect=fixed;imageAspect=0;image=data:image/png,iVBORw0KGgoAAAANSUhEUgAAAXYAAAFtCAYAAAATT0E9AAAK1mlDQ1BJQ0MgUHJvZmlsZQAASImVlwdUU+kSgP9700NCC4QOoTdBOgGkhB5A6VVUQhJIKDEkBBEbIosrsBZURFBZkVUQBVeXImtBLFhYFBXsbpBFQVkXCzZU9gKPsLvvvPfOm3Pmznfmzj//zH/uf85cAMi+LKEwA1YEIFOQLYoI8KbFxSfQcE8BDFSBEtACaiy2WMgICwsBiMzav8u7fgBN2VtWU7n+/f1/FWUOV8wGAEpEOJkjZmci3IHoU7ZQlA0Aqg7xG67IFk5xN8IqIqRAhKVTnDrDb6c4eZrR+OmYqAgfhLUBwJNYLFEqACQzxE/LYacieUiBCNsIOHwBwrkIe7B5LA7CbQjPy8xcPsW/IWyGxAsBIJMQpif/JWfq3/Iny/KzWKkynulrWvC+fLEwg7Xy/zya/y2ZGZLZPUwQJfFEgRGIlUfO72768mAZC5IXhc4ynzMdP808SWD0LLPFPgmzzGH5BsvWZiwKmeUUvj9TliebGTXLXLFf5CyLlkfI9koR+TBmmSWa21eSHi3z87hMWf48XlTsLOfwYxbNsjg9MnguxkfmF0kiZPVzBQHec/v6y3rPFP+lXz5TtjabFxUo6501Vz9XwJjLKY6T1cbh+vrNxUTL4oXZ3rK9hBlhsnhuRoDML86JlK3NRj7OubVhsjNMYwWFzTKIBnaADvwQdQQ2AGRzc7OnmvBZLlwp4qfysmkM5KZxaUwB23oezc7Gzg6AqXs78ym8oU7fR4h6dc6X/gQAFzcA4DdzviSkz2bk3pEt53wW1QAo8QE4r8CWiHJmfOipBwYQgQJQARpAFxgCM2CFVOgE3IAXUmUQCAVRIB4sBWzAA5lABFaA1WA9KAIlYCvYCSpBNTgA6sBRcBy0glPgHLgEroEboA88AFIwBF6AMfAOTEAQhIPIEAXSgPQgY8gSsoPokAfkB4VAEVA8lASlQgJIAq2GNkAlUBlUCe2H6qEfoZPQOegK1AvdgwagEeg19AlGwSRYBdaBTeD5MB1mwMFwFLwEToWz4Dy4EN4MV8A18BG4BT4HX4P7YCn8Ah5HAZQciorSR1mh6CgfVCgqAZWCEqHWoopR5agaVCOqHdWFuoWSokZRH9FYNAVNQ1uh3dCB6Gg0G52FXosuRVei69At6AvoW+gB9Bj6K4aM0cZYYlwxTEwcJhWzAlOEKcccxDRjLmL6MEOYd1gsloo1xTpjA7Hx2DTsKmwpdi+2CduB7cUOYsdxOJwGzhLnjgvFsXDZuCLcbtwR3FncTdwQ7gNeDq+Ht8P74xPwAnwBvhx/GH8GfxP/DD9BUCQYE1wJoQQOYSVhC6GW0E64ThgiTBCViKZEd2IUMY24nlhBbCReJD4kvpGTkzOQc5ELl+PL5ctVyB2Tuyw3IPeRpEyyIPmQEkkS0mbSIVIH6R7pDZlMNiF7kRPI2eTN5HryefJj8gd5iry1PFOeI79Ovkq+Rf6m/EsFgoKxAkNhqUKeQrnCCYXrCqOKBEUTRR9FluJaxSrFk4p3FMeVKEq2SqFKmUqlSoeVrigNK+OUTZT9lDnKhcoHlM8rD1JQFEOKD4VN2UCppVykDKlgVUxVmCppKiUqR1V6VMZUlVUdVGNUc1WrVE+rSqkoqgmVSc2gbqEep/ZTP6npqDHUuGqb1BrVbqq9V9dS91LnqherN6n3qX/SoGn4aaRrbNNo1Xikida00AzXXKG5T/Oi5qiWipabFlurWOu41n1tWNtCO0J7lfYB7W7tcR1dnQAdoc5unfM6o7pUXS/dNN0dumd0R/Qoeh56fL0demf1ntNUaQxaBq2CdoE2pq+tH6gv0d+v36M/YWBqEG1QYNBk8MiQaEg3TDHcYdhpOGakZ7TQaLVRg9F9Y4Ix3ZhnvMu4y/i9ialJrMlGk1aTYVN1U6ZpnmmD6UMzspmnWZZZjdltc6w53TzdfK/5DQvYwtGCZ1Flcd0StnSy5Fvuteydh5nnMk8wr2beHSuSFcMqx6rBasCaah1iXWDdav1yvtH8hPnb5nfN/2rjaJNhU2vzwFbZNsi2wLbd9rWdhR3brsrutj3Z3t9+nX2b/SsHSweuwz6Hu44Ux4WOGx07Hb84OTuJnBqdRpyNnJOc9zjfoavQw+il9MsuGBdvl3Uup1w+ujq5Zrsed/3Dzcot3e2w2/AC0wXcBbULBt0N3Fnu+92lHjSPJI/vPaSe+p4szxrPJ16GXhyvg17PGOaMNMYRxktvG2+Rd7P3ex9XnzU+Hb4o3wDfYt8eP2W/aL9Kv8f+Bv6p/g3+YwGOAasCOgIxgcGB2wLvMHWYbGY9cyzIOWhN0IVgUnBkcGXwkxCLEFFI+0J4YdDC7QsfLjJeJFjUGgpCmaHbQx+FmYZlhf0cjg0PC68KfxphG7E6oiuSErks8nDkuyjvqC1RD6LNoiXRnTEKMYkx9THvY31jy2KlcfPj1sRdi9eM58e3JeASYhIOJowv9lu8c/FQomNiUWL/EtMluUuuLNVcmrH09DKFZaxlJ5IwSbFJh5M+s0JZNazxZGbynuQxtg97F/sFx4uzgzPCdeeWcZ+luKeUpQynuqduTx3hefLKeaN8H34l/1VaYFp12vv00PRD6ZMZsRlNmfjMpMyTAmVBuuDCct3luct7hZbCIqE0yzVrZ9aYKFh0UAyJl4jbslWQAalbYib5RjKQ45FTlfNhRcyKE7lKuYLc7pUWKzetfJbnn/fDKvQq9qrO1fqr168eWMNYs38ttDZ5bec6w3WF64byA/Lr1hPXp6//pcCmoKzg7YbYDe2FOoX5hYPfBHzTUCRfJCq6s9FtY/W36G/53/Zsst+0e9PXYk7x1RKbkvKSz6Xs0qvf2X5X8d3k5pTNPVuctuzbit0q2Nq/zXNbXZlSWV7Z4PaF21t20HYU73i7c9nOK+UO5dW7iLsku6QVIRVtu412b939uZJX2VflXdW0R3vPpj3v93L23tznta+xWqe6pPrT9/zv7+4P2N9SY1JTfgB7IOfA09qY2q4f6D/UH9Q8WHLwyyHBIWldRN2Feuf6+sPah7c0wA2ShpEjiUduHPU92tZo1bi/idpUcgwckxx7/mPSj/3Hg493nqCfaPzJ+Kc9zZTm4haoZWXLWCuvVdoW39Z7MuhkZ7tbe/PP1j8fOqV/quq06uktZ4hnCs9Mns07O94h7Bg9l3pusHNZ54PzcedvXwi/0HMx+OLlS/6Xzncxus5edr986orrlZNX6Vdbrzlda+l27G7+xfGX5h6nnpbrztfbbrjcaO9d0HvmpufNc7d8b126zbx9rW9RX29/dP/dO4l3pHc5d4fvZdx7dT/n/sSD/IeYh8WPFB+VP9Z+XPOr+a9NUifp6QHfge4nkU8eDLIHX/wm/u3zUOFT8tPyZ3rP6ofthk+N+I/ceL74+dAL4YuJ0aLflX7f89Ls5U9/eP3RPRY3NvRK9GrydekbjTeH3jq87RwPG3/8LvPdxPviDxof6j7SP3Z9iv30bGLFZ9znii/mX9q/Bn99OJk5OSlkiVjTowAKUTglBYDXh5C5IR4Ayg0AiItn5uppgWb+BaYJ/Ceemb2nxQmAGi8AYhEN7UAYUbN8ABQQOzUORXkB2N5epv8ScYq93UwuEjJVYj5MTr7RAQDXDsAX0eTkxN7JyS+1SLH3AOjImpnnpyTEChmRr9k4Ofrdpvvlg3/IzKz/lx7/acFUBQ7gn/ZPVEIWgrE+IfsAAABWZVhJZk1NACoAAAAIAAGHaQAEAAAAAQAAABoAAAAAAAOShgAHAAAAEgAAAESgAgAEAAAAAQAAAXagAwAEAAAAAQAAAW0AAAAAQVNDSUkAAABTY3JlZW5zaG90CSyfXgAAAdZpVFh0WE1MOmNvbS5hZG9iZS54bXAAAAAAADx4OnhtcG1ldGEgeG1sbnM6eD0iYWRvYmU6bnM6bWV0YS8iIHg6eG1wdGs9IlhNUCBDb3JlIDYuMC4wIj4KICAgPHJkZjpSREYgeG1sbnM6cmRmPSJodHRwOi8vd3d3LnczLm9yZy8xOTk5LzAyLzIyLXJkZi1zeW50YXgtbnMjIj4KICAgICAgPHJkZjpEZXNjcmlwdGlvbiByZGY6YWJvdXQ9IiIKICAgICAgICAgICAgeG1sbnM6ZXhpZj0iaHR0cDovL25zLmFkb2JlLmNvbS9leGlmLzEuMC8iPgogICAgICAgICA8ZXhpZjpQaXhlbFlEaW1lbnNpb24+MzY1PC9leGlmOlBpeGVsWURpbWVuc2lvbj4KICAgICAgICAgPGV4aWY6UGl4ZWxYRGltZW5zaW9uPjM3NDwvZXhpZjpQaXhlbFhEaW1lbnNpb24+CiAgICAgICAgIDxleGlmOlVzZXJDb21tZW50PlNjcmVlbnNob3Q8L2V4aWY6VXNlckNvbW1lbnQ+CiAgICAgIDwvcmRmOkRlc2NyaXB0aW9uPgogICA8L3JkZjpSREY+CjwveDp4bXBtZXRhPgoGXiLBAABAAElEQVR4AexdBXhURxe9uEtw94QAISQ4gUCxhODu7lqBQgv0pzgtpTi0BQqFAkWCOwRLggUITnEoEKRQXEqQ/e+Zl3n7diPEliR0br7dNz7zzts9c+fO3Uwit5oLTRSGmERqWFlhpYXRQKik6NYL1ZBKUAgoBBQCCRCBRNEcc1j1ElGisJJFD4koqbknlDKRmdDDqmVNzlpcq6PVt25PxSUCCh98vsyi8FB4qM+D9ffBTNZG/gVOxrhWyySIVxK88ftkMhK7kdRRUYsnSmQEH2FZjkMctczXOpTvWr6Mhb6qfOAXGheZovBR+KjPh/w2hL5+jN8P3JNG4hrPJk4s48b710hcu3+UA7kbeZooaSL+5GiNoaKJC2hxWRAfLG1m0IhclOIKMl/GE3O5d9y28YquMATrdBlX+Qof9flQ3w/JB9bX/yI/aPwLfgWzgotFQOdbMz9r+Ro/a2HxzsUF4bvVXBTC24BRigzjaqJ3796Jq5ar5XGXsrAgbmNcz1ABhYBCQCGgEIgUAkznQjGWhRHXxHxNLFR4xM1psjzStAkhRGM3ZyAEwkYlELpG7NDOE9E7PY48/Ekxk7o5Teapq0JAIaAQUAi8DwEmZS4iNXSttCRwJnw2hZgosW49QTw0uRuIXTPDaIRsMr1jxkcFjcQRR5hMb6lDaxeqUb0wFSmcmZImFYYfrW/1rhBQCCgEFAI2QeDNm3d0+co/tHPXZVr4xzFKlDgpc3QSYUUBVSMMRRskr/F1YqG1J4IpxjwiBKVm/o5M795QnlxpadxIDyrqkNVcTIUUAgoBhYBC4IMicP7CPRo+cjvdvPVMEDzvaApNHlez9o4hsYZvHplG6jC4C+ZnLd3Er7HfKlI3Y6RCCgGFgEIgbhCAcg0+Bi/DigKe1jZIjXug2tiY2I22GtbXUYa1dlTu2LoUORZVmnrcPEbVq0JAIaAQsEQAfAxeFuQurCvGfDOXh2jsgs1DNkcxE2Dj9DXb1O2NtVRYIaAQUAgoBOIYAfAy+FnzVnzLVzkg1uRDJLG2WSp3U3Fl1mdt/R3b1+2LZJHl1FUhoBBQCCgE4gEC4GXwMzwVNf5muwuUdbasSz5PHOLETm/fwrau+axDzX/79rXyfokHD1ENQSGgEFAIGBGAVyL4GTwNrR28Df6GSD7nX55qVbQr/NVN9IYLCjdHLUu9KwQUAgoBhUC8QkAjdLizi98Ziat5gAavGLC9Vlhq7uZiKqQQUAgoBBQC8QUBaOpvYVwXvzWS2rocXYi7o1DQOU3aa6Ctw36jRCGgEFAIKATiHwLg58RW//jLOEqhsWt2GY313zHLG+PGwiqsEFAIKAQUAvEBAfA174lKrZzD0r6O0Vl5xfB/IwixuceHoasxKAQUAgoBhUDYCIDTNb7mvVHB2yFejUzySSXh4wrGN2vrmgYfdpMqVSGgEFAIKATiDgFwtbYnyjzOYYwEadqIxP9jl2yPX6HCzo645X8Zi7vhq54VAgoBhYBCwBIB7XANM1+Dt2UaCD7EK0azv5g3T9GI0tgtoVQxhYBCQCEQfxDQFHKMx5q/Lf4JWPwZsBqJQkAhoBBQCESEQMSKN2vs5gLSPhNRcypPIaAQUAgoBOIeAWu+lnZ2jIyJHWq89tJMMeZ43A9djUAhoBBQCCgEQiMgPWDMfG3k7xAbe+hqRk0+rFyVphBQCCgEFAJxhYDZ0hLWCAx+7GB+1t2FRV7OAmFVUWkKAYWAQkAhELcIWPK1dHyR/G3hx46BivOr43bEqneFgEJAIRAvEVi9ZgOtXrs+UmNr2rghNW3SIFJlo1sIfI0fKUl7u7yyxg4tXXvB1q79t7DodqPqKQQUAgqBjxeByJI6EIhK2eggBu1c/qcAjcO13yAhHIGNPTpdqToKAYWAQkAhENcIJIWWrgmuxnBcD031H58ROHDgIN27d4/qeNWh5MmSiaEOHPglPXj4gCpUqEB9eveKz8NXY1MIfAQIGPla8rd2tdLYI95pjSkS3t6rKFv2nOI1e/ZPMW0uQdR/+/YtPXv2TLwQjqzcvn1Hx0piVrXqJ/T10GG0efMWtqlF/1kFv36tjymy4zGWu3z5CjVq3IS69+hJfyz9Q8/auWunGNvxY8f1NBVQCCgEbIOANQcY4yF+7OhYY3qcoQSRVxGJpbcVK731lpavWKmHP+aAv/8+KlTYXrz27dsXo1s9d/48zZ+/gDp36UpffT002uQ+6Ycf9TG9efMmymPKli0r5cmTh9KmTUtF7ItEub6qoBBQCMQMAfAzbOxmnjb6tYfY2I2ZWncaucesa8vad+7cIV9fXz3xzz//pNOnz+hxFQgfge7du9HpUydo27YtwsSROHFi+u23hYLcw69lu5x06dLR0SMBdO7cWars5ma7jlTLCgGFQAQISJ62VsaxqcppmieMLMS6u0gzxyNoOdJZq1atFgevZs6cmRwc7EW9FStWhFkfpoJx4ydQtU9qUIGChQkmiFmzZpO1dhnZcjhGas7cedS6TVvWMItSFfeq9O23I+nFixd6/48ePaZPqtcUr+XLzeNau26dng7zCAQTlCx7/sIF6ta9BxUr7kSlXFxpzNhx+jhHjR5Dg74crPcx6Msh1KJlaz0e2UDq1KkpW7Zs5OriQqNGjaSOHTuIqiD3f/75x6KZvXt9qW+//uRUshSVLlOO+vbtJ2zhslDTZs1p8ZIlMko1a3kIrGXCa8Z+4sQfyKtufSpYqAiVLVdBmH8ePHggi1DQrVtUvUYt8vCoQ+vXb9DTwwusW7eePD29xCqhhJMztWrdhgICDodXXKUrBBQC70FAEHdIGfC15r+uXREXfuzwhYRSLwXmW/PJHDI1ZldpevGqU4eyZ89GP06eQqtWr6ERI/5HSZPyHm6IgISbNm1m8cWHCQIkeenyZZoy+UdRMrLlUPib/42gefN+DemB6MmTJ3ThwkXatWs37dixjVKmTMmnfL+hs2fPijJGsnz44KGe/vp1sMh/8uSpntagQUPCpCBlxoyZlD9fPkG+N2/epOvXr8ss+uuvvyg4+JUej26gfbt2QmNH/cNHjlAdT0/RFCactu3aE8hZijePwdfPn/x895CdnR1r2efp/v37MpuwcipRvJiIA9PmLVoSNkYh+LA8f/5cmH9OHD9BGzasE88q+NUr/f4fPXokyob39vviJTRo0JciGzij792795Afj2n1Km+qWLFCeFVVukJAIRAOAkZ+Bl9L+7p2FRq75guJL7GR9Y0zQjhtRzoZJpdz586J8vXq1aX69euJMLwqdu/ZY9HOCra9S22uY4f2tGbNKvLy8hJllixZSti4g0S2HLRFSeq1a9ci75XLqU2b1uJeoW1P+nGyaC+6byVKlKAN69fRrJkzKEXy5KIZqcVO/P47+mn2LL3pn36aTdu2btHj0Q3kz59fryqxwuTStVsPQerOziV5U3MJTZr0A6VJk4b+/vtvmjp1mqiz02cHde3aRa9/5PAhGjdurIgfOXJUJ/WR346gK5cvUr9+fUXe0cBAOhQQoNeLbGDOL3NE0Vq1atKli+fp6NHDBFMOVl9z5s6NbDOqnEJAIWBAAPxs5GuEpeUFYbOqbKgU20FpcsEX2r2qu3CPK1CgAF27dk0QdO1atfQuN2zcKMLFixcXxIRIwQIFhWaJMOoULlyIIlvO19cP1ShP7tz0+6KFBPt01apV6ThroNBWt2zZQt8MHybKROftf98Mp9KlS7OLX3mCCcfXz49uBgWJpqAhZ8mSRW82a5bMlCNHDj0e3UCGDOn1qnJFEMjEi5UIZOTIb6lK5coifPDAAfJmM9juPXtpFKfkzJmD0qcz18+VK5e+YnJ0LEoH9u8T9fLnzyfS27ZpI8xgSLx86XKUbeov//1XtIdJ/Pbt24RJaafPdrESSJkylchTbwoBhUDsIsDEnohblC80jnDsecVAM4PJBQIClz7P0NxhN9+6dRs9fvyEJFlduXJVlLU3eFvkypWTAg4dEOnyLbLljh3XXO9KOjsLUpf1K1WqKIj9EpOV0dYu8yN95dlRSqbMmUQQpgpbitFUVNTBQXQl7xOR4cP/p8/m0uwiJ4CIxpU+fXqCLR3P5eDBQ3SLifjfEGJGPaOJJ6J2jHndunUV+xknTpykcuUrUsmSTlSzRk3q07c32WXMaCyqwgoBhUAkEQjb4cXM4xYaewxco8Mdzh7WFKGtQbbv2EHOpVxF+OXLl+L6iklw3fr1BLMLJDhYs2MnM9jdRYbVW2TLPX36VNQ0sf3YKFKTlrYpY158D58/f0EfYtmyZUVYYozIpUuX9HwEkvEPiEDK8KNPkiSJRZ4xgj2BOl71BLljk/uTT6oJU86yZcuNxaIUxg+VsFqa/dPPhFXFqVOnxeuPZctoyeLfCWYjJQqBhIxAMV7p4mXrfyFgjZE1X8PuLn+YZEHsUD7Nhc2aqHWDUYmvNPiuyx/qWNeHqUYSe8ECBejGjRtCW5TloPWvC/G+KF+uLOXNm5ciXa5gQbFpGXDY0gvjyhXNVg/TCLxOMMFIeRUyuch4fLv+/PMvYkiwpcEMBClSuLC44m3jxvXCg0ZPiGRgGZuSoLFjM3v9urWEVRPIPrrEjskEE2vlym5Ut66XmODXb9hIo3kj/O7du/Tr/Pk0beqUSI5OFVMIxD8Ehg/9UpC6HNmHI3fY2GWv2tW4LyoIXlPrZSlcZdiyYlRj+FJv2bpVVHNzq0QL5v9q8ZKbqNgAhO0cUonLQQ4dCqA1a9eKTbaFCxdRnz59xetFiKYf2XLV2KYPAWHBYwUrhdVr1tCmTZtFurt7FXHNyGYBeG1Adu7cKX6ZqY1/m0iL7lvatGn0qhcvWmrSesZ7Ao/Z8+Tq1auE1Q9cK7du08Y0ZMhg3YQF8pTa+MiRo+g8exJBYAKBiyOIVIpxTEbt/u+QMtiHyJgxgygO27yUqK5uYPMvXqIkORYrQXiGmER79uhOLi6lRJOX2ctJiUIgISKA/9y4eOFcC1LHf3JEGvI+jBi52vxjJejtgti13VSmcy5nfMV0cOs3bNBttB3atyfY1Y2vHt27613AywXSu1dPdofMLswGvXr1IfhSDx02XOSVL1+OpE05suV6MJEUKFBA1IePub2DI/Xu3VcQPDxGhg/TNk6h/VbjTVUIJhr4paPsHiuvHVEgCm+urq7iflAF94H7iaosXPQ7VajoRi1btWaXQ21zGSaOQQO/0JsqVqwY9erZQ8Thruhe9RPRV20PT8KvX38O8U5BAellhDD88du0bYeg2FTGFWYu2MPLlC2vuyoiPTJ2epSTAnMONHUIXE4bN2nKfdfTvZ7q168vi6qrQiBBIACTC7T0iP4d74cgeCNPyzB4HIKrNMloKbH8LskaboAeHrVDtQ5PEvzwBoJ/NwCNEGQLl8CaNWsI2zBMJNjUa9myBa1cYbb1RrZccu5765ZN1KhRQ0qRIoUgLZgasILw2bGdsDErZfz4sVSaiRiCfuF989VXQ2R2tK7QfuF1U6hQIVFf7g1EpzFMal27dqGFvy0QP1SybuNbdlGc9MNE3fMGPui52esFEwC8d6TAxIKJMVOmTOJHY2/evBVZWEENGzZUrFywoQwtf8jgLylr1qwi/+zZP2UTkb7O+eVn/pFUH9HX/v0HCG6T2N+AOyXGoEQhkJAQsDa9RDT2iMg/onqRzQu9gmaH9hBJ5O7pzflv2fjyjrXk1/xF59fbl0xsT+j4waGyXJxcYaMFucAlDwQZnkS2HDYPg9gVESYBEH54Aq8T/FhHElp45aKaDjfIbEySEfUd1TbDK/+QzTdvGL+I7gF7F/hXD9b4Ak+4JubImVP3Ygqvn6ikoy+Yi0DsWCEpUQgoBKKHgEvFCayopqfESVIxNybj71Uy/olpYv5eJaFErLJbbJ5Grwvb1YI3B/7Z1PsksuVAKvn4V6HvE5gQbCHwDvlQEhlXQqxcwsIXeEYGp6jeCyZUJQoBhYDtEQDFh/RivCIs47YfhOpBIaAQUAgoBKKCgORnq6vg80QhNvYQcje7OkalA1VWIaAQUAgoBD40Ama+1sjdbGHnfwImBwNuN9o9dUVeFlBXhYBCQCGgEIgXCEi+ljwt4gYri74jKdnf+hov7kINQiGgEFAIKAR0BKx5WsZlAdbY+RdMYjeVf6bEtG+eCaTtRhZVV4WAQkAhoBCIDwhoXG3N19DTkSZt7PpIjVYaPVEFFAIKAYWAQiCeIWDtxw6XdSm6KUbzgoGWLjV1eZVF1VUhoBBQCCgE4gcCmmZu5GvzvwCTvzyF/UWI9TV+3IIahUJAIaAQUAhYI2DF1wYe1zV2PS2krnXcukkVVwgoBBQCCoG4QcCan63jOrFjV9Vos7HeZY2b4ateFQIKAYWAQsAagbD42sjfSbGDikLaLqvO8yJu3ZiKKwQUAgoBhUDcI2D0ioGdXcSFd6NmnkksNXPJ9uZ43A9ejUAhoBBQCCgEQiNgzdPW/C00dlTTfNnNO63WNpvQTasUhYBCQCGgEIgLBDR+DtHUOZIoEVtbRKKWZra9iNEpP/a4eEiqT4WAQkAhEHUErPnaHLciduk+E/UuVA2FgEJAIaAQ+JAIWPO1OW5F7B9yUKovhYBCQCGgELAFAnywtcbyOHVD7q7icOuQZFv0qdpUCCgEFAIKgRggAH7WeDqEt0MOPNX4nHdM5e7qOzbPvOOIjMtrDPpWVRUCCgGFgELABgiAn9lRXedr8Dc8YyRvh3jFsIYOvxieBjALQKQmb4MxqSYVAgoBhYBCIAYIgJ+lxo4wuPsdWJyvIm5sGwlKFAIKAYWAQiDhIWDkbzg/ijuQmrqMJ7zbUiNWCCgEFAL/NQTC5m8mds33EYq9JvL6XwNI3a9CQCGgEEhoCITN3yEau2avkUWU1p7QHq4ar0JAIfDfQwDauqaSaxYXLY405cf+3/s0qDtWCCgEPnIEQvzYtZ1UOK9rBvjEIdeP/O7V7SkEFAIKgQSIgAVP67wt+dvgxw7/R6MfpPSHTID3rIasEFAIKAQ+agQ0fn6n+61b8zf7sZvvPwlH3nEcaUbXGXMJFVIIKAQUAgqBuEYA/Iz/6Aiuhj3dyNkhaWB2vOAfI4qIsHpTCCgEFAIKgfiOADZP5Vap5HK1eRrfn5oan0JAIaAQiDICkupFRfwoVYlCQCGgEFAIxH8EQu+Dmn+DxMRuVt9NiZLw3Zjj8f/W1AgVAgoBhcB/EQGzB4wwsAvelqZ0ZYr5L34i1D0rBBQCHzkC+n93hKaO3VS8aTuuH/mdq9tTCCgEFAIJFAHNCwZ0Lfka5A3R4knxf3xlkuYLCX927aUVVO8KAYWAQkAhEJ8QkBwt7OwGvoaVPRG/JQ05eEOMWfiuM8vL2SA+3Ygai0JAIaAQUAhoCGgcrVlZzHzNcc5G3MIrRoGmEFAIKAQUAgkfgcTW/xVMM8wI3k/4d6fuQCGgEFAIfJQISI62vEo+t9LYYaFRohCwDQJv3ryhx4+f2KZx1apC4D+GAP63l6WY40k1DR12GSPza3Yay0rRix06FECnT58WldGHXSY7yp0rN5UpU5qSJIHf/Mcni5csoVf/vgr3xvLlz0e1a9UKN/9jzHj79i1VqOhGt27dosW/L6KaNWt8jLep7kkh8EEQ0OzqkrM1/jaZzHEmdgj/vwEz2YsU67hIjMbbxo2b6Jc5c0LVzJMnD02bOpnc3d1D5cW3hO07dtCO7Tvo66+/osyZM793eGNGj6WHjx6FW66Op+dHTew//fwL/fPPP/TN8GGhMND+g6jVhy1UKZWgEFAIRISANT9rcRA7JJGlV4xI4jxtNhAlYu0tY8YM1KVzZ7p0+TL5+++jmzdvUtduPSjw6GFKly5drPVji4YmTPiezpw5Q3379okUsffo2YNevnwphrJkyVJ68OABOTk5UfXqn4i0og4OthhmvGjz/v37NHbsOMqSJbMFsWN1FnDoAD179pwyZEgfL8aqBqEQSKgICAMLD954BbnDyxFpVjZ2292mnV0mGjr0a/p13lz67rvxoqPHjx/TqVOamQYJz58/p2HDv6FKblWoQMHCVL1GLVq4cJH4P/HGkfn5+1OTps2oWHEnKuXiSt2696DNm7foRf766y/q3KWryHMo6kiNGjehffv36/kIuLtXo7r1GgjNunfvvuRUspRor2/ffrq2/eTJExoy5CtB6qjTuk07Ue/HyVMQDVe+HDSQ/vfNcPHKli2bKFeWTU8yrWXLFiINY2jcpCm9e/eOxo4bT66uZeizz78QeUeOHKEJE74TY8+XvyCVdHah/gM+pTt37uj9Hjt+XIwHmJ09e5aaNmtOReyLUuky5eiHHyaJdmVhlB06bDhVrfoJORYrQe07dKRp06brNu/r16/TrFmzqUOHTlS0aDECbi1atKLAwEDZhLhC416w4Dfy8KxDhQrbi/4//2KgwOjy5SvUvUdPev36Nd27d1/k4R53794j6n7ySQ2qX7+BxbNCe3jGsr2atWrTiBHf0qNHj/V+o3KfwOe7776nBg0bCSzw7IHthYsX9fZUQCHwMSAgSV3eizGeFLuoId6PnA9V3viSVWL3+g6/igqRHDlyiBBssA0aNhb2+GTJklHhwoUFWQxmYr3HWiDIErJ+/Qbq0bOXTvaJEyemDRs2Uo0a1UU+VgKYEJ49e0ZYJaRLl54OHDhITZs2pzWrV5GbWyVR7vyFC+JarVp1QZZoBwTrvWo1FS5ShAYN/IK2bNlKi1njlnLjxg2xFwEzQ2yIGAMPAxPTpk2bRZPp0mqrl5MnT9GUqdMoadKklD9/frpy5QqtWLGSLl28RFu3amVfvnhJaOMG3/Py5Svo6dOnYnyYkH6Y9CMTqztVrFhBkGTz5i1FPkxJdnZ2tGvXbjpx4iT169dX9PvixQsaPWaswLVQoUIUxG3u9fWl4ydOkL/fXsqePbsoh8lh/vwFIgzM0D9en306gKbyRHHw4CGRh43SK1evijCeBUTcL18xoUv55n8jaO7ceSKKPRhM9HgdPnKUVnmvoNSpU1Nk7xON4LOBfZ1UqVJRvrx56fjxE+L5t2jeTHaprgqBjwABI0+bwx/cKwZf5jn8BYZ29z/+MkNKlnSiQoUKijCICZusWLLv3+dHvnt30/RpU0UeNMt///1XEO/IkaME+ZQq5Uw7fXbQX9eu0LI/llKjhg1F2QmsrYFIHIsWpZMnjtORw4eoTZvWos73EyeKMtZvS5b8Tn+ePU3VqlUTWZgoIK1ataTVq7xFGG8YV9DN6zR+3Fg9LTYCIHWvOnVo1swZ1KlTR9Fku3ZtaemSxXTxwjk6sN+fpk6ZLNIDjx2j27fNWjsSQcrFixejPbt38hj9dRLesFG7jwtMvCB9yLx5c0R7Z86cooW/zRcTB9IdHR1p+bI/6PSpE3TwwD42l/mKSQLPDaYzyKVLl+m33xaKcPNmTenE8UC6cP4cLV68iAoWLMh7JlNo8OAvRX6uXDkFVsCrQYP6Is36De3JSaJjh/aib6zo0qRJQ0ePHiXY6o3yvvuE9h8YeExU6c8Tlh9PSBcvnifvlct5FVLU2JQKKwQSPAL4vFuKOR7iFWNmfK2gjFtWi0kMduZvvvmf3gRIdM6cn/X4oYAAEc6ZM6e+dMcXGfLq1Su6zLb5DBky0M2gIJHWvl07MTEgIrV1hKGtQaBhLlu2XISTsdYLOXv2T3E1vrVo0VzfyGxQvx7t3btXmDUwOaRNm9ZY1GbhcuXKsTligUX7KVKkoAIFCpCPz066dfs2k6R23yh05+4dyplTW+nISl98/jmTe3ERdatUidasXctYaNpzkSKFCe0BR5haOnbsQH1696LSpUvL6uJaokRxOsqml5s3bgqzGLRePANp/gHZYlUD+eKLL/QJxKN2bZEW1TeYm7BSg3z22aeUNWtWMQks+n2xeA7oz1oiuk9o/LgHaOkwl128dIkG9O/P5qeq1s2ouEIggSPAdhb+vGsi+Vq7QmsP8YqR9ygLynjsXdOnT8822+a0bes2Qc7FHIuSXcaMegcgEwhMKUO++lpPlwFMDE+eaFon0pxZY7cWzGBBIcQPMwJeRoH2CSIxulnmZe8cKVmyZJFBncD0BBsGGjfWVhuyi2C2UXfnjeWt27aJJJg8jJNM6JmaKE9ew31k1e5DmrwyZcokNPXBg78SJD179k9CUx7xv2+oe/duog8Q4ZQpUyk4OFjE8bzkBrDsDyYfCMwjmCxiKpiwINDQ87LZRErxYo76BCvT5DWi+0SZ2bNmUZ++fYWZae3adbRu3XrxucNqwvjcZXvqqhBIuAhY87U5nliyvrxaHrMUe7cM2+6E8eNo0qQfRKMwywQEHNY7gLYGgUkAJhbrl6urK2ViH3gpV3ijzlpwD5KcW7duFaoNtGn95YYmG9eSNo3lygBmKUnqwOzC+T9p/bo1+jDls9ITOJDyPffh6eEhvFJGjx5F2NCFaWs4r6Cw4YnX999PFKQO3I4fC2Rb/nnKyCskiOwvE9vmIZoWf1eEY/JWmG35EGya//3333pTV69eE2H5LPUMDrzvPjHhbN+2lRbM/1V4ImFSwt7E0j+WGZtRYYVAAkdAI3HJ1/I7iis8YxJLbUxezacome01sYkAzCYNGzYQGvGnn30uCAbtSw38/PnzlCxZUmFmgQ0er3Tp0gqNNV++fJQieXIxnNVr1uieEzAVYLMRAts7ZP/+A2z3LaC344gVgmFiQJnIiNFv/dYtTcOMTL2YlLl7VyNNmEJgc4f2vJk3cqXIZyXj77s+fPhQuFymTJmSevfqSRs3rBNV0M5V3uA0kips3bCPY8NZ+uLL/uwd7PWuFi9eTNgghWATVo45S4ifP7xapMavV7IK4EdqUv5g4sVq6iJvDgcc1ib8Us6lZHakrhgn7Pb4cNerV5d/e7CV8HsJCDaflSgEPh4ETLxvyEpXyKl3+OzDJ0VehcaOL4J8mQ+0Nqv1sQ3G2DGjBVHjyzZu3ATRfNcunYX3Bwb2SfWawnUP9uCy5SpQ334DRBkQXbduXUV4xw4fci1dhipWqizc+/zZBRKCH8XAqwbueyWcnJkYu1DLVm1Ye3MWbnWiUBTe7O2LECYUSIeOnYTHTa9efaLQQtSLetXxFJVAjHBhhOsezCS4r+gINqXhzlmvfkPq138A9ezVWzSD1YqTUwkqV66s7p/ff8Bnwg7fsmUr4Vli7K9K5crk4qKRLbxuXEuXJRfX0lTbw1Pf0K1Zq6aoAq3ejd1W8XzkBqmxLYRBuj179BDJ48ZPEO25V60mJiE864GDvrCuEmEc9n+3ylWoKns64Rl17NRZmPZQqWyZMhHWVZkKgYSFgMbZ4GvJ3UlYVUeYSf3D+bEbQYOL49ChX4mkufPmiQ1PaJMb1q+lxo0bUXLWyuGJsW37dvElB6FIGTZsKA0Y0F9MDFjCY3KAVi03DmHK2cAaaRn+IsNevGXrVtqzZw+lSp2KnEuWlM1E6Tp8+FCxrIdnCTZxs2fXfNOj1EgUCpcoUUK4IcIUAffBv/66TksW/04NGzSIQivmosAHmB9mTXjlSm+xuQiXxrlzfxHpcKkcPWokObBGDjz99+1j//3BNIYnYKPgQ/P7ooXk5eUlnhG0dKxi8OMr6a+fJ3duGvjF52JzN4j/fcBD3hvJlDmTsRmL8Jgxo8TGaYECBYT9H33g2W3etIH/9UQui7Lvi6Cus3NJOnfunNg8xuQPl1d8ZqDBK1EI/FcQSFSj4U7+DwPv+H7fiKX1u3fB9Cb4Bb15/YgCfPvHCQ7Q2rGxBrMLNv6weRiWwAQDUgqvDDYh73KZ9OkzxMqvHe/duycmkfDGE9YYY5Km/dOsx7o2HZO2UBfmkSdPHjPZZRTmnbDag1kG+x0gyYgEZpPb/IzwO4GwfkmKZ4hfocq9k4jaknnAF55PmNhjIlgt4LcG0Poxqb3vXmLSl6qrEIgLBMpXnUlJk2WkpMlTMz8mD3FbTkrQ4BNDc7ck9tds+34d58QeF0CpPhUCCgGFQEJBQCP2DEzsaQzEnoSJPYkgdoMqDA3NqKUZwwnldtU4FQIKAYXAfwGBsPjazNlM7PyfHXVC1wqb4/8FgNQ9KgQUAgqBhIeA/PcBUiE3xpNKU6qgdH5DHH6Q75CgRCGgEFAIKATiHQKSp3GVLzlI8HdS3uPSBRteiGv+kHqyCigEFAIKAYVAPEIAPC35WgtjcMzf/A7+Zo0dqjnvouIvkeYTqWnsSmUHVEoUAgoBhUB8QwC8bf0SPu2Cx+PIjz2+gaTGoxBQCCgEPiYExOapdkPWGrp1/GO6bXUvCgGFgEIgISNgzc8yrl1D3B1lorxR67hMV1eFgEJAIaAQiA8IwJauiTVfG0wxwtTO9hkpWlzG1FUhoBBQCCgE4gsC4Gf8Txgp1vyt/0AJO6tGsY4b81RYIaAQUAgoBOIOAWt+to5becVY7rTG3bBVzwoBhYBCQCEQHgLWHjHSu1F4OLL6rmvsaAB+kUoUAgoBhYBCIP4jYM3XxriFV4zG+vKGzPYbmaKuCgGFgEJAIRAfENCsK+aRyLjG2xZeMep/xJhhUiGFgEJAIZAQEDDztlTGrUwxCeEm1BgVAgoBhYBCIGIELGzs+D+PShQCCgGFgEIg/iNg9mOXYzXztzjzFDupeMnz88yqvaygrgoBhYBCQCEQnxCQnjGSv9mzXfz/GMQTWzvCWMfj042osSgEFAIKAYWAGQFrvpZxobGD+aGlyxnA+IsmcxO2Cx06FCAOno5MD69evaKAgMORKarKKAQUAgqBjxYB8LTkbCN/I83Cxm70g4xNNHC48LNnz8JsEumdOncJOYzVXOTdu3f077//mhNCQv7++2jGjJl6Osb84MEDPqsVB3KHlidPnoRO5BQc7BwcHBwq7zUfgP3w4cNQ6fE14dat27Ro0e/xdXihxoUDuq9duxYqXSUoBD4EAvtvnqcLD25Fqasnr17Q0+CX760T/PYNvXwTmlNQ8TG3EdvyTqrnIQ0b+duC2MH0sSk4Kb5Tpy5UoaIbVa9Ri5o1a0HPnz+36OLAwYNUvlw5PoDVYig0bPg3VLlKVYuyiPj5+3N6ZZHu7b2KSpcuS40aNaGSzi60dt06vfzVq1e5nDt51qlL5StUoj///FPkHT9+gmrWqk21PTzJleuOHDlKpGNiGDlqNJVyKS3aw5jPnTuntxfdwFdfD6Vs2XPS6dNnQjXh4VmH8ubNHyo9KglBQTfp1/kLwq2CZ4D+HYuVIIeijlSxUmUaPHiImAzDrWTDjJOnTlGXrt31HtTqS4dCBWyMQNDTB/TDwfU08cB62vvXWXrx+hUdDLpIica3snyNaUZbLx+jk3//Rc7zBlPBnz+nor8MotLzv6a7zx+HOcqvdy+mLNN7U55Z/anf1nlsAdE2Mi8+uE0FZg8gp3lDKNeMvqLNMBuIRqK1ZcXI35ZsGo3GI6qSJk0aatS4IZ08cYwCDh2gZMmT0ZKlf1hU8ffzpyruVSzSDh8+rBOxRQZH/JnY3UOIPVu2rLRhwzry89tLixYuoCFDvtJ/PYuJoVvXrnRgvz+NHvUtff75QNFUhgzpaeyYMXQ44CAdPLCPlq9YSWfOnBETS6lSznT0SAD5+u6hdm3b0ITvJlp3H624k5MTea9aZVH34sVL9Pr1G4s0W0XwwM/9eYYunD9HGxmvlClTiQkvrBWRrcYg2y3t6ko7fbaLKFZM/Qd8KrPUVSFgMwR8r5+l0guGCc0Zmu7c4z6sud+mirntyTRsuf56OHA+JU6VjtMdKH+GrDTbsxv989kcujVgNhXOmJV+PLQ+1BgP8eQw/5Qf3eo3k+4M+In8b16gzRcDRbm+TPKDynnRDc6b5dGZOqyfFaq+LRKY2DWPGDP7m+3tMe0wZcqU1LRJE90OZF/Enh6y2cQofmxakUSN9GA2hYCUBw38wlhMhGE+gemhePHiIl61alXKkyePCNvb29PTp88IS30Qhh9PGE2aNhF5Hh4edIU1+Nu371DBggWpUqWKIj1dunSUM2dOehBiemnSuDGlSpVK5Dk48FgfWo5VZETjra5XHVq3dp2Fucjb25saNKhv0RpMViC6oo7FqZJbFdq5c5eev3z5Cp4Aq5JTyVLUu3dfuhkUpOdFJZAlSxYaM2YU33cOmm/Q9KdPn0EurqXFymfatOl6k3379ac1a9dSrdoeZO/gSL169bFYde3atZuqVqtOhYs4iBWZ0cwyYcJ3YsyurmUI7WBVdOLESWrTtp14RnXr1afr169TmbLlqWs3sxavd64CCoFYQmDlnwepR6lqVLuAMzV2KEuLG31KLtkLhGr9t5O7qY19acqYMg1lSJGaquR11MvkSpuJ3oZh8t1w6Qi1LFqe0iZPSckSJ6EOJSqT9/lD9Orta/K5eoraObmLNho5lKOTPJncfPqP3mZ0A1DWNO9Fzcqi8bfG5cIrRjZs7RNpHZflYnL19fPTSRXtwJZ99+5dcnQ0gzdl8hRq1LAhE0+uUF3t379f1DcuOWQhX18/KlOmNCVLloz++ecBJUmShOwyZhTZMPPkyJ6did3Stoa+b968Qc4lnWUz+nUvt1epojYB6InRDGTNmpXy5stL+3j8ENjC1q5bTyB8o/z663x6HfxarCTGjhlNX345WF+BFCtWjFauWCFWFClSpiAQfUykRo0adPLkKdFEYGAgryhWk/fKlbRq1UpayDZ7mLIg9+7dpx9+mEQTxo+jzZs20vUbN2jZsuUiD/sR/foPoAH9+4kVWSmXUgTTEwRt7t6zh7Zt3UK7dvlQ506dxKooOPgV3blzl5InT04/zZ5NmTJlEnXnzZ0j6qk3hYAtEGhoX5YmHdlOO66djLD5qUe2UZ/SnnoZ2MyP3r5MvwTuoHWXAqlfWcvvLAoGPX1IedJl0uvkZU3/xpP7dO/FE/ZATEKZeAUAAfkWTGdHN5/EXGEEPxtt6hpfa+afkL40lpdkKa6cJONiRLHwNnfePMrK2iK0bCn79lkSNWzaO3ftYo20lyhiPQbY16tU1uzrsg1csUE6avQYGjZUIxXY8aXmLculSp2Kyz2VUXEFCfXq1YtgnjEK7PBbtmzhvJ7G5GiH8QCaN2vGpLlatHHw4CGyty8iSM3YqM/OndShY3vxwFxdXSh1mtR0/MQJUcTZuaTQstGWW6VKtJ+xi4lkyZKZSfueaMLHZyc1adKYx2NHWTJnpmrVqtLmzVv05r28vKgc74NgzF06dyJfXg1BDvL+CNJatGhOmbne118NoSNHjuob5dev36D9Bw6QnZ0dlS9fTm9PBjD5QnC13mORZdRVIRBVBJ4F/0vrLxwWL2yWQmoXcqY9rYfR7edPqCmbQybsW6PbwWX7u66dFhp35bxFZRJdeXiXum+eQ//z96Y+LjUpe5oMep4MPOON1TTJUsioCD/89yVhHIkN6SiQluOP/7XcZ9QrRiEAbpQvaOgaV5qvSdEWl2Ey0WYUMD+oPjbFf98++umnX1jj22DRLIjavYpmX8cy/YuBX9I3w4cRXBphlkAaSDp16tRi4LDHd+3SxaKNt2/fUo+evahVyxbk5lZJ5GXMmEHUNxZEe+nTazMn0idPmUrPnz2nzz4dYCwmVhDduvegGdOnhSJei4JRjDRo2IBt9t+Le1u50puaN29m0QLs3YcPH+HJabj2QDg3SZKkdIPJ0dXFhaDNb9i4Udjl3/E9Y78iJhJ0M0isItAGVlIwU61Zs1ZvMmPIagcJxXm1IKVkSScaM3aciPr57bNY7UALL1y4kLiP6tU/oUk/TKQRI0bSj5Mm0+jRo8Ikd9muuioEYgsBaMrj9muf5fI5C5NbHo2oYU/vWKIKBb97TbOP76QsqdNRD9daerczj2yhfqXNcWSUyJqXjnX7XkwCX+xYSMP3LKOptTvrdRDIlDItk/grPQ2Ebsf7WHac/u61pWffUy6Xgc08sSHgbUjikKtUhJHOxB6SGu5Vqxzd90uXLlN/Xq4v/O03ypEjh0Uz2Ajt2aOHSLt95w4dPXqUmrdoZVGmYKEivKw/QimYNB6zZg4N0Siwx9tltKNBgwbqydAQoQVCI4UZBHb3oKBbunkH3jNrVq/hjdf1Fm6WL1++ZI25kyB7d3fNLqY3GsMAzELlypaljRs30e7du2n8+LFipSGbTZEihRjLtOlTBZHLdFwvX74iJqL9+/zF6gITw++LFxuLRCkMPDBJ9OnTW9TDJnfXLp2pX7++YbZz4cIFPR3P07Go9kWBnX7rtm16HiZi2NidnEqItPr165EXm5uWLFlKLVq2ohPHj+llVUAhYCsECmbMRoc6a8pHWH24Zi9IdQs+1EwlIQVuP3tIay6foHn1+4RVBToxNXEoT102/xyK2LHJeuXx33q9yw/vUN70WcTEQYkS053njyhHmoz05t1busYmmjzpzWYbvVKUAxHzNm+eSruMiTS/SHM8yn1ZVYANHUQ5ceL3BI8To8C+DR92aHiQ3Lly0d07t/SXv78vuwLmFfE8uXMTtP7Kbm7GJuiXOXOF98x0JkM5W6EASN2jdm0CAUI2btpEBQsWFKYMTB6jR4+lpUsXEzR7KTBx9Onbj6rwCqJjxw4yOVavzZo1peHf/I83G6uyZ0pKi7Yx/lq1atKCBb/pm5MwMWEz+eLFC5SPsYDJCKuZlezmGR0B8WKS6Na9J9u4U1DrVtokCqxgY8fGNAS288eP2T4YInv27BXukZj4Vq9Zw+Y0bdJzq+xGMFtJV1JMmIULFRaTKdws8XzxLFq3bsVjz8ArsLeySXHNkSM7oU1jXxYFVEQhEEsI1F/xHbVaM4U2Xg6kEX7etJU3Nbu61NBbn3NsB7V1LC+0b5l4iQn6X7axQ+C+uOLP/eTCGjzkCNvd157XfijZ1LECLecwfNXhy77ojD/Bpp+ESb25QxlaeGKPqLPyzwPkmCkn2+Mzi3jM3nhEgqrNfK3Z3LV4iMYO9od9JjEX5rDQ8eWMEP3uQUCXL1+mrga/5WysQUMD92cbcWUre7mRnDFDIi7T/HnZX8Xd0r4+adKPggQLFbbXBzlhwnjq0L4djRz5LbXv0IF+W7hI2Kzn/zpPlJk+YxYT2C3hdSIrNWQzSb++fYRdGeaEOTxhSNm7Z7c++ci06F49PT3Y3DQolBlGtjd+3FgaMOAzci7lKrx9YD7aumUT1ahZU0xi7u7V6AUTIcZq9NmX9cO74oEXLVpMfDixKY0JZPasGYJ0UQcT2XnWyiu5VSZMgI8fPaLJk3+k6mxOgZQoUYKqfVJDmMbyshdSS8YYUtTBgVce46ht2/asmLCOwDJzxnRxhffLYHY/tbPLKPDv1bOHMG3h8yAFJrZO3Dd+V1C+XFmaPfvDuILJ/tX1v4PAvHq9Cfb2hSf3UkP24Bri1ggMIwB4a3pHU4/uoA3NBlkAsufaGeq/azHlT5uR/n75jEpmzkVLGmmm2/kndtH+oEvUuGg5csycm4ZXqE95Z38qNkhbsNcN0iFT2Gzj+cd4mnZ0O73jb+DmFoMt+oh+hEcvbDBm7xjwN3hccPnjx49N0OSgpeEFDQqaFswYtWrVin6/76kJgsMPk9q0af2eklo2fmTkvXI55cuXL1LlZaGnT58S3BoTkuAZwOYOO7ec2DB+PBeYTYxpsXlfMNE8YlKXpiy03aJla/Zo6Uh163qxO+lT3qew3GiW/UPrtt6ERh5WHeHVkXUxgUGzhzlKiULAlgh4s9tj3vSZqQLb2yMjMJ/8w6Rux3bx5LznJQXeMi/5B07S4wXpr7nsW36lTJpcFtOv+PVqenafjC3x8fERK+O0adMKRxF4A+IFJwS8zCONrR4j2c7+/Qdo4BefR6o0fLahdUaV1NF4QiN1jBkePdZePUjHQ7SlJE2alODnHpZgMomIoMMidbQTUR3ZDzR3JQqBD4FA82JRc2FOyu6KYXnCpGLyxsso8GHHKyyJTVIPq33rtDgj9kMH91uPJdw4bOz4paiSD49AVnaLtN4P+PCjUD0qBBQCUUEgzog9KoNUZeMOAWX3jjvsVc8KgegioO14Rbe2qqcQUAgoBBQC8Q4BRezx7pGoASkEFAIKgZghoIg9Zvip2goBhYBCIN4hoIg93j0SNSCFgEJAIRAzBBSxxww/VVshoBBQCMQ7BGzqFfPXX3/FuxtWA1IIKAQUAnGNQP78+W06BJsSu60Hb1NkVOMKAYWAQiCBIqBMMQn0walhKwQUAgqB8BBQxB4eMipdIaAQUAgkUAQUsSfQB6eGrRBQCCgEwkNAEXt4yKh0hYBCQCGQQBFQxJ5AH5watkJAIaAQCA+BeEHshw4FUHCwdlJJeAOV6ThBKCBAO7lEpqmrQkAhoBBQCJgR+CDEjoMUcEhEWIL0Tp27WJw9+ujR43CJ3t9/H82YMVNvCv+n/cGDB+J0Hz3REMBBD2FJeH3gsBEc6ZeQ5e+//xZH7M2e/ZM4Su9D3wvORU0IklDGmRCwjE9jvMPnJ/v6+kZ5SOFxBTgGh8y8T3CMJQ7ICUvCazussrGRZlNix7mXnTp1oQoV3ah6jVrUrFkL/TxPOfgDBw+Kk5Rw6gfOz8QxabU9PMm1dFk+3m6ULKZf/fgA7MpVtCPyvPnovdJcrlGjJlTS2cXiuLirV69yOXfyrFOXcPqSPJczvD5witTIUaOplEtp0R7GfO7cOb3f6AS+/HIw4dg+vLJlz0kFChYW4SZNm0WnOXEPkfmASZzz8DF2H/pUIuDoVbeemGyjdZMfqFJCGecHguOj6QZK5LLlK8Th7zv4lCEofVJAvF99PZSKFXeSSeIaHlcgE4e146jKWrU9Cd/b8Ah6/PjvqFy58uTmVoWGDf9GHAyE+hG1jXybCY7GYw3VxFqeKSgoyHTp0iXT8ePHTTt27OCJKmbCR7yZVq1ejaP3xKtV6zYmPoDaotERI77V065cuWLik5VEPgNocixWwnT69GmL8kz8etrevXtNN27cEPlHjhwx2TsUFf0goXWbtqZff50v8rZs2WLy8KgjwhH1wQc1m/iDIcpNmzbd1LFTFxGOjbf8BQqZrl+/HqOmmrdoZeKzSSNs48bNmwK3CAvZOPPt27c27iF2mk8o44ydu/34W2Glx+RcysXUt19/U/PmLU1MsCY+0F7c+PPnz0116tQ1MbGH+n6ExxWvgoNNDg6OprNnz4o2vvlmhImVv1BAHg0MNJUuU87E1gcTm5QF1+zY4SPKhdd2qEaimAB+Bk+Dr8Hb4G/wOPgcONhUY8fJO02bNNEPpbYvYk8PDTMoZis/Nq24h2jgOEi5UiXt6CocaZczZ056YDCLwHxy69ZtKl68uJjoqlatKg59RsTe3p6XS88I53bCXu/n588zbBNRzsPDg66wBn/79h1xWHN4fTRp3Fg/ks7Bgcf60Dzbi4Zi+W369Bnk4lparDZ4ItFbX7N2LXl51aMSTs7EkyHx5EVDvvpaLC9btGhJZcqWF/epVwgJ8AeQOnToRPxwRRme2Gj+/AX0xx/LaAgfLF2YD/HFioU/Q8KcxR9GKupYnD77/At9JYVDqAcO/FKsXnhiFYdYnzx5isaNn0BOJUsJreXgwUPWXVvEK7HWgjNQIViBbdy4SRwejlXQ5ClT9bKnTp2mNm3bCQ2qbr0GtHPnLpEH8xzGhP6xIps503zINe7n51/m8EHlHcnewVGcyRrEh5N37tJVlO/Vq4/4jKAheS/fffe9GDv6wFikGMcZeOwYIR99tmjRivbtj/wJX7I9dY1bBPx5NV+gQAHq1q0rc0QxGjd2jH5wPI5fHDVqJH326acWg4yIKwICAihnrlxUrFgxUadFi+biwHuLBjjis8OH6tTxFOcR49zRxk0ai3IRtW3dRmzHbUrs1oP19fPTiRt5sGXfvXuXHB0drYuK9Js3b5BzSWc9bz9/2UDKYR3m7OvrR2XKlBYHuv7zzwNxOLIdHwYNgZknR/bsTOy39LYQQN/WfcgCe7m9ShWjdj6irBuZa2BgIHmvWs0HdK+kVatW0sJFv4tlGw6yhglqzpyfKfDoYRowoL+Y4L6bMJ6yZctGy5f9QQGHDljsScj+8AGcMvlHMdmhTNeuXegJ2wZByvj3DgcP7CMnpxJ0jEls8ZKlNHPGdNqyeZM4uByTACQ4+BUt/eMPSsuHZh/g8tU/qUb16jegYN609vPdQzWqV6cZM817HLJv4/XmzZvEazSRdO7cefpj2TJa/Psi+v33hTRv3q/EKxeRN278eGrdqhWdPnWCvv9uApUooU3YCxb8Rtgn2LJ5I/c1XYz16NGjog7uZzzfT7u2bcX9vHnzmj8TlalBgwZivMGvg2ktT4wQeS9Ygvvu3U39+/UlXiGKPLwZx5kjew6a+P13dPbMKWrYqCFN/nGKXk4FEgYCbm5uwlz588+/hDng8uXL6Z9LWSAirrh75y7lypVTFqXcuXOx0mDJIci8g3KshErJzZPBLeaaiNqWZW11/WDEPnfePMrKByVDy5ayb1/4RA1bWK9evSxOvod9vUplzb4u28AVdq9Ro8fQsKFDRTIvu3TNW5ZLlToVl7PcAAmrD5SHVsvmG+6/p6we61cfn53UhGf2TJnsKEvmzFStWlUxyydJkoRevHhJmzZvERMY7heHTGNywoSWmPNRJixBvszDVU6ABQsWoH5MalmzZhVtbd++g1dSjdkeWIkKFSrIhNePbYnb9SZRr2/fPoSJEVoKPJH69+9HdnZ21Lo1a7P83KIiHTt2oMKFC5EDr6rcq1ShPXt9RXX0s33HDjHBlyzpRDly5BDpSEP/WMFV5i9r82ZNLcZXgldsXl51KDPj5uXlRXnz5qFmvDrDeBsxKVtr259/9injnInq1vWi17yiu3z5Sqjh4wuMSY/NhvwZcyPs/WBloyThIICD0/fs3i2eIVZ2gwYNfu+mZ0RcYZ2HA+bxXYCiYJRQ5UK4xjoddcLiIWNbsRX+IMTuv28f/fTTL7ykNpsbcAMganzRrQXL9efPnvOyaYBFlj+bV6pYlWc7KfXo2YtatWwhiAoVMmbMwOT4wqIu4unTp9PTwusDWny37j1oxvRpggz0CrEcwOpl8eIlvGxrJl5HjwbSfd5sTp48Oa1ZvUos78pXqEhLl/4R457lUlI2BPOXs7N5JeTiUoqwgsBqAVKAl7NYukLSsOYOAsWkIOPW2IqMCN5cSpXSc/EMZH1gnCJ5CmGmGTN2nDCh4Ytz5MhRi5VaKR4fvKGkSM0e8TRpUutLZS2eRm8fcUwO+MJLSZcurUW+TN/Lkw3MO3Xr1RebXzDpKWKX6CScKyZoKAUNGjYQqz4obxFJRFyRIYMlj+BzC2eE5GxuMUoGK7558VzjmojaNta3RdjmxA6Xsv79B9CC+b/qGpm8EdjErIl67bp1TGxraO7cORbmhnv37tFj1szt7YvI6uKKHWi7jHY8Ow/U06FZQmNFHQi+pEFBt9ikkUvEw+sDxNahYycxobi7u4uytnoDYXbt0lmYCGAmwOvbEf8T3UFz9PZewRPhDBo7bjzt3r0nRsOAxm+UnDlz0MWLF/WkixcvkX2RIvoqB5OLUbBaiIkk5y9DWJKFV3CTJ0+i7du2sBnlIE38YZL44mRkzfvSJcvxOTuX1Juwbi+i8Vnfi96IIYDPxyD2YBrQvz+PZStNmvSDIVcFEyICsA40b97MwismrPuIiCuwEpRmQ9TFvyHPxWYWa8nL3mehyjHXRNS2dRuxHY/ZN/Y9o4ENHUQ5ceL3VKqUWUNENWjG2CTDEl0K7KijR49lLXWx0LplOq7Q+rEsNwp72Aib2vTpU3WzA/JB6h61axPviIviGzdtEpobCC28PqCd9enbT0w0MB3YWjA+2NixGQyB/zw2HKGxwg8XAjMMtOk3b9+IeP78+ejatWsiHJO3T9huvmXLVrp//77QkpctX04enh4xaTJaRXZBHQAAQABJREFUdeX/64dWXY/NJCBYCOz6y9llDVjAZXbTps3kyRvgthKY8qAEYMMNn4OlvP+gJOEhMGXqNGrbrj3NmzuPfHbuFHtLvdmcG5FExBUuLi6Co2CaheAzie8tBBvzcIWEwBy4bft2YRKGmWb1mrXk4VErQh4SFW34ZqnKxXJHK9nP/PLly7yJ111vORsv6QMDjzBR76fKVvby6TNmic0JeCtIachLqtmzZpK/3z6q4m5pX5806UfhzQE/cSkTeJOxQ/t2NHLkt7y07kC/LVwkvqzzf50nioTXRz9evm1muzY0vDk8YUjZu2e3xeQj02N6xeTBrotshqgsJp3Hjx6x9vqjsPM2Z8+XRPyXPEVy1qTtqVbNmqK7rl270NdfD+MN0qk8aS2ntGnTRmsY7du1o4sXLgqPF9i5CxTIT7/88nO02opJJay2zp07L/YYUrNJZVbIpiwUge49evLvHyrxF+u5sI1XcTd/JmLSZ1h1YX/v3Kkj1ahZW+xlwF6fN2/esIqqtHiMQK+ePciVyfgg74/8y0rBLF7xwi7+PgmPK7ASnMXc06VLV0rCq16YeRYtXCiagzJ0LPAY1fH0pCJFClOvnj3JvWo1oWCC/D05HRJe2yLThm+J2DUOvt9CY4TWCHMENGloMLVq1bJZ118MHCR+mNSmTetI9YEfGXkzmeXLly9S5WUh/KAHrpPxVaClPmJSl8s2OU5pz4NGYRQ8I/y6LTbuCfsTaAtmobgS3A8wCOsLiM8ivlDWNk1bjRVYAG+4rClJuAhgc/zQoUPUtm2bKN1ERFwBTjQqUvisvOSX9LxDR/gsg0vD+lFgRG1HaZAhhX34x1fY98KY8N3BZxYvTEZ42VRjj2jA/EMkGvjF5xEV0fNuBgUJrTuqpI4GYoMA9YHYIAD7N2zN1iI3L63T5QO0To9OHCQWl6SOMUd0P2GRfXTuM7J18LsLJQkfgcKFC0VrlR0RVxhJHQjhs2L9ecFnOTyJqO3w6sQkPc6I/dDB/ZEed57cuelwwMFIl1cFFQIKAYXAfxkBm26e/peBVfeuEFAIKATiCgFF7HGFvOpXIaAQUAjYCAFF7DYCVjWrEFAIKATiCgFF7HGFvOpXIaAQUAjYCAFF7DYCVjWrEFAIKATiCgFF7HGFvOpXIaAQUAjYCAGbujvKn4zbaOyqWYWAQkAhkCARwL/RtqXYlNhtPXhbAqPaVggoBBQCCRUBZYpJqE9OjVshoBBQCISDgCL2cIBRyQoBhYBCIKEioIg9oT45NW6FgEJAIRAOAorYwwFGJSsEFAIKgYSKgCL2hPrk1LgVAgoBhUA4CMQLYj90KECc5BPOGCOdjFOZcHiFEoWAQkAh8F9GIM6JHf/AvlPnLhbnmz569DhcoscxZuEJjsrbtWu3no1/fI/j+cISHGGFf5ZvLRHVweEXGG98Ehytt2jR7/FpSBGOBYdqxMbxfhF2ojIVAuEgsP/mebrw4Fao3Nfv3tL9l09DpUclIZiPsHz5JjjMKo9fvQgz3VaJH4TYlyxdSnnzFQhTmz7Ax1iVL1dOnPqBswVr1qpNtT08ybV0WT5WapR+31evXqXKVdzJs05dwmlKf/75p54nA+JwbD5uD6eYjBw1mkq5lKZGjZrwEWtufATbOVmMxo//jsqVK09ufAQfjmfDOZcR1cG5m506dRHtVK9Ri5o1ayGO5NMbjCCAU9KzZc9Jp0+fCVXKw7MOH8EWsx8qBAXdpF/nLwjVtkzA2NG/Y7ES5FDUkSpWqkyDBw957yG/sn5sX0+eOkVdDEclBgQcju0uVHsKgTARCHr6gH44uJ4mHlhPe/86Sy9ev6J3/N0f6LOQ0kzpRhV/+4Zyz+xLp/7+S9T/bv8aSjS+lfk1jo+sHN2U/g2DvL/evZiyTO9NeWb1p35b55GJ/yAXH9ymArMHkNO8IZRrRl86GdK2yLThm82J/euhw2jjxk2UI0eOMG/D38+fzzLVzrPMkCE9jR0zRhyqcfDAPlq+YiWdOaMRIgi4W9eudGC/P40e9S19/vlAi/ZwEPSNGzepRIniYpLA4dlHjwSQr+8easdHZE34bqIoH3jsGK1avZr27/Pn47MOcJmjtHPnrgjr4JShRo0b0skTxyiA6yRLnoyWLP3Dov+IIk5OTnxw9SqLIhcvXuKjtN5YpNkqgnNNz/15hi6cP0cbN6zjk19SiQkyrBWLrcYg2y3t6ko7fbaLaHBwMPUf8KnMUleFgM0Q8L1+lkovGEbQnEHmc4/7sOZ+mxLzd6NsjsL06NNf6FKfadTXpSYN3aN9t792a0KmYcv117Y2w6l0nqKUMmlyi3EeCrpI80/50a1+M+nOgJ/I/+YF2nwxUJTpyyQ/qJwX3eC8WR6dqcP6WRZ1bRWxObG3aN6MFv++SBBnWDfh57+P3Ktoh1TjtPpKlSqKYjhKKmfOnPSATSkgAD+eAJrwIcMQDz6x/gpr8Ldv3xFxvB04sJ8qVqyg99OkcWP9HE0HB3s2yTwQZX12+FCdOp7iSDgcZdW4SWNxiDUyw6uDI7CaNmkiDqoFSeKA6YcPtPZEo+95q+tVh9atXSdWBbKot7c3NWhQX0bFFaYeEF1Rx+J8yHUVMeHIAjghvYp7VXIqWYp69+5LOC4wOoJj+MaMGcXY5qD5Bk1/+vQZ5OJamko6u9C0adP1pvv2609r1q6lWrU9yN7BkXr16mOxWoHpq2q16lS4iINYyRjNLBMmfCfG7OpahtAOVkU43b1N23bimdatV5+uX79OZcqWp67duut9qoBCILYRWPnnQepRqhrVLuBMjR3K0uJGn5JL9gKim7ZOVSh1shQiXDxrXrr/Imxz64wjW6lf6dqhhrbh0hFqWbQ8pU2ekpIlTkIdSlQm7/OH6NXb1+Rz9RS1c3IXdRo5lKOTPJncfPpPqDZiO8HmxF6mTBlxQDC+1NYC+zc2PB0dHa2zRPrNmzfIuaQz/fPPA9GGPDgWh7XmyJ6did1sK9MmiLBPst/r60eVKmoTxp07dykXTxhScufKRbcM7ch0Yx2ZJq++ftxeyAQk0yK64tDZvPny0r792nGAMP2sXbeeQPhG+fXX+fQ6+DVhtTJ2zGj68svBwkyEMsWKFaOVK1aIVUiKlCkIRB8TqVGjBp08eUo0ERgYyCuK1XxY+EpatWolLWSbPUxfkHv37tMPP0yiCePH0eZNG+n6jRu0bNlykYf9iH79B9CA/v3ESqaUSymC6QmCNnfv2UPbtm7hfQ8f6typk5h0g4NfEZ5B8uTJ6afZsylTpkyi7ry5c0Q99aYQsAUCDe3L0qQj22nHtZMRNr/j6gmqnr9YqDIg401/naHWTNrWEvT0IeVJl0lPzpshK914cp/uvXhCxESfKVU6kYfVQcF0dnTzSeSVQr3RKAZsTuwRjWffvv2CIKEFWwsIolevXgTzzPPnz3XtW5ZLlToVPXli3uyARl85RPOXZXCF3X7Lli3cVk+RbN2WdTth1REVQ97mzptHWVnrrVq1qjE5wjCIvHmzZkyaq0W5gwcPkb19EUFqxoo+O3dSh47tBZm7urpQ6jSp6fiJE6KIs3NJoWWjLbdKldiUpE0SxvpRCWfJkplJ+56o4uOzk5rwyiVTJjvKkjkzVatWVV/FoICXlxfvSZQTY+7SuRP5MtaQg7w/gvto0aI5ZeZ6X381hI6waUtuMF+/foP2HzhAdnZ2VL58OVHH+IbDtCG4YrJWohCIDQSeBf9L6y8cFi9slkJqF3KmPa2H0e3nT6gpm0Mm7Fuj28Fln4dvXaKl5wJoUIUGMkm//hy4nXqx5i01ez2DA8+CX1KaEI0f6Qg//Pclp/9LiQ3pyEvL8cf/PkfQpmLTfwL2vpH7+fuzGSa0lj15ylR6/uw5ffbpANFExowZCGYKoyCePr02E96/f194vxR1cDAWEVp/t+49aMb0aTqJZrBq68VzczuojBWEdR3ZqP++ffTTT7+w5rpBJkX62qBhA7bzf0+vXr2ilSu9qTmbqIwCe/fhw0do2NDhxDYfkZUkSVK6weTo6uJC0OY3bNwo7PLv3r4Vdn5j/aiGg24GiVUE6mEFArPWmjVr9WYyZsyoh4vzakFKyZJONGbsOBH189snVlQyD1o4TojHfVSv/glN+mEijRgxkn6cNJlGjx4VJrnLuuqqEIgtBKApj9uvfZbL5yxMbmwXh1TMbU8dS1Sh4HevafbxnZQldTrq4VpL5N169pDqef9A3o0GcHp6kSbf3rDHzLRAH/Jv+z+ZZHHNlDItk/grPQ2Ebsf7WHac/u71v3o6Ak+5XIaUaSzSbBGJU2KHF0vPHj0s7mvtunW0ZvUa2rBhve4CCY0PWh00TJg14DIXFHSLNdhcoi4It7Kbm0U7L1++ZO23k5gc3N01GxcK5M2TR9h1ZWH8a+FcIe2EVwdlL126TP3Z7LDwt9/C3QiWbYZ1hRmpXNmyYiN59+7d7JkzllccvFQLkRQpUoj7nTZ9qiBymY7r5ctXCJMdNnyxgsHE8PvixcYiUQoDP0wSffr0FvWwOdy1S2fq169vmO1cMPw2ADg4FtW+KLDTb922Ta8Dcxts7E5OJURa/fr1WNuvQ0uWLKUWLVvRiePH9LIqoBCwFQIFM2ajQ5015SOsPlyzF6S6BR9qphIuAO+YOsvG06jKTalWQedQVdacDyB7Nq+UCrHJWxfIz3lXHv+tJ19+eIfyps8iJg5KlJjuPH9EOdJkJEwQ19hEkye92WyjV4rlQJytf6EZY8kODU/K0aNHWbMbS0uXLiZo6VJA6h61awtCQ9rGTZsIG60gFsg+3oA1mmFgrujTtx9V4dVAx44dRBn5BrPCtu3bBanCl301a6keHrWE+SO8OtgLwCQxceL3BG+b6EqzZk1p+Df/483GquyZktKiGZijatWqSQsW/KZvToL4McaLFy9Qvrx5BakLjd97lUXdyEZAvJgkunXvyTbuFNS6VStRFdjCxg6feAhs5/AykrJnz17hHomJb/WaNWyG0iZKt8puwtQlXU8xKRcuVFhMvnCzxPPFs2vduhWPPQNvnr6VTYprjhzZCW0a+7IooCIKgVhCoP6K76jVmim08XIgjfDzpq28qdnVpYYwx7RaM5U8CpakPmU8w+wtrE3TI7cv09rzmqtuU8cKtJzD8LiBL/uiM/4Em34SJvXmDmVo4Yk9ot2Vfx4gx0w52R6fOcx+YjMxzjR2f7YRV2afc6NMnzGLyeWW8AiR6Q3ZhDF71kwaOfJbat+hA/22cJEg4fm/zpNFCBunRm3z7NmzwkYM08Ac/tGSlL17dlORIoWpV8+e5F61mvByAal5enpSRHV27trFhHiZuhr8r7PxyiEw8IhsOlJXT08P+mLgoFBmGFl5/LixNGDAZ+RcypXy8MoC5qatWzZRjZo1CT++cnevRi+YCPv17cObr+tktfdeMdEVLVpMfIixysEEMnvWDEG6qIzJD7/YreRWWUyYjx89osmTfxTmFOSXKFGCqn1SQ3i1YMXTcsJ4JBNMX+N5U7Vt2/asmGg6wswZ00UevF8GD/mK7esZxfPq1bOHMIcBRympU6emTtw3frtQvlxZmj37w7iCyf7V9b+DwLx6vQn29oUn91JD9uAa4taIEvHf8bvXaOO5Q7SRzZ4/HtyoA3Ku9xQqmjk3nf8niPxuX6GtbJ83yvwTu2h/0CVqXLQcOXK54RXqU97Znwr3yRbsdYN0yJTancnzj/E07eh2esffwM0tBhubsVk40ePHj03Q5KCl4QUNCpoWzB61amn2J1v0DoLDD5PatGkdpeafPn1KcIWUEsQTQYP6DaNMsrhX3DdMIPFN8Axgc4ed27ixjOcCs4kxLTbHDhPNIyZ1afpC2y1atmaPlo5Ut64XAfv06S3tj7J/aN0wE1kLVh3h1ZFlMYFBs4+Pz0KOUV0/DgS82e0xb/rMVIHt7TER/ML0JZtwpMcL2sKvV9/yy9rPHXlPWJtPnyI1grEiPj4+YmWcNm1a4VgC12284ISAV5xp7Pv3H6CBX3we5Zs0kjoqwzvEPcQ0EJXGAEJ8lVSpUoXyAsJY8RBtKUmTJiX4uYclmEwiIuiwSB3tRFRH9gPNXYlC4EMg0LyY5vYc075S8Y+U8DIKfNjxCktik9TDat86Lc6I/dDB/dZjiVYcrnZ4KbENAlnZLdJ6P8A2PalWFQIKgdhCIM6IPbZuQLVjWwSU3du2+KrWFQK2QCDOvGJscTOqTYWAQkAhoBDgH7wqEBQCCgGFgELg40JAEfvH9TzV3SgEFAIKAaWxq8+AQkAhoBD42BBQGvvH9kTV/SgEFAL/eQRs6hWD/8OiRCGgEFAIKAQsEcifP2Ynp1m2FjpmU2K39eBD345KUQgoBBQCCgFlilGfAYWAQkAh8JEhoIj9I3ug6nYUAgoBhYAidvUZUAgoBBQCHxkCitg/sgeqbkchoBBQCChiV58BhYBCQCHwkSEQL4j90KEACg4OjhS0OEEoIEA7uSRSFVQhhYBCQCHwH0Mgzokdh0d06txFP9/0ffj782lJM2bM1IvhdKAHDx6IQzP0REPAeK6oIZkPlHgc5mSCAzhwFN5/TXCWqZLwEcDn7Plz258ubz0CHFe4aNHv1skqHgECd+7cIV9f3whKhJ0VHlfg2eOQmfcJjrHEATlhSXhth1U2NtI+CLEvWbqU8uYrII5fsx70gYMHxUlKOPWjfYeOlDdvfv2VK3de8qpb36KKHx+ALc839eazP0uXLkuNGjWhks4uFsfFXb16lcu5k2edulS+QiWS53IeP35CHMVW28OTXLnuyJGjRPs4TWnkqNFUyqW0aK9CRTc6d+6cRd9RjXz55WAqVNhevLJlz0kFChYW4SZNm0W1KZuWx7171a0nJsj3dYSyR468/0hAHOOHey/Mx5CVcnGl//3v2/c1/cHzI3svOKe2bLkKVLFSZfHatGnzBxtrUNBN+nX+gmj1h3Nn8blzLFZCPAccb4gza2Mi+B5FhuRi0kdM6uI0rmXLV4jD33fwKUNQ+qSAeL/6eigVK+4kk8Q1PK5AJg5rx1GVtWp7Er634RH0+PHfUbly5cnNrQoNG/6NOA4S9SNqG/k2ExyNxxqq6e+//zYFBQWZLl26ZDp+/Lhpx44dPFHFXBhIU+s2bU38xTCdO38+VIMjRnxr4vM8Q6UjYdy4Caax48Zb5PH5mKbTp0+LtL1795pu3Lghwkw2JnuHojjmT8TR56+/zhfhLVu2mDw86ojwlStXTHx6kwjzQzLxh15vjz/0Jv5giLxp06abOnbqIsKx8Za/QCHT9evXY6Mpm7Tx9u3bSLUbEBBg6t6j53vLVqlSVeCM58FkYCpTtryJJ+X31vuQBSJzL/iMVa1WXf9c3OTvyAP+vnwowRjRf3Tk/v37JiZ2URWf63Xr1pty5MxtYoUlOs2JOs1btDLx+bjRrm/LijzhmJxLuZj69utvat68pYkJ1rRypbfokldbpjp16prAR/jOGyU8rngVHGxycHA08XnIovg334wwsfJnrCrCRwMDTaXLlDOx9cHEJmXBNTt2+Ii88NoO1UgUE8DP4GnwNXgb/A0eB58DB5tr7C2aN6PFvy8S5/CFNTvhIGr3KpaHWqMcTCJL//iD2rdrq1eD+QRL0+LFi4u0qlWrikOfEbG3t2dN4hnh3E7Y6/38/HmGbSLKeXh40BXW4G/fviMOa65USTseC8fs5cyZk/iLKso1adxYP5LOwcGeTTLm2V4UiMU3HPY8hA97XvT7YrHa+OnnX4QJqGPHzuRUshQfYF3bYgnOH1basGEjeXnVoxJOzoTVAPCAQIvo27cfubiWFgdez5o1W6TzZ0WYrfhDRzyx0KBB2kG6aAv7FPzhJ4eijqJsJdY0cG4pBPlr1q5lLcWD7B0cqVevPsIMcebMGerarQdt376DmKj58OmfRPmI3nCknqOjI9XhA8O3btmmF50+fYYYL1ZaPInq6dCw2rXvIPpt3KQpLVu2nHhyF/lTpk6j2T/9rJeFNgQ8pFy7do0aNW5CReyLUsNGjYW2hLyw8Insvdy4eVMcgI7jCiG5c+UiOz6LFgKTXUTPCxjioG5ozNDizp8/zwenewkNECsYrBgg81kjx3116tRFjL1uvQZ8ePoVkWf9Ft49WpezjmP8OBge35PTZ86KbODXrFkLoc3z5EG7d+/Rq2Hs8rPWqnUbYgWKhnz1tTBxtGjRUjx/fNfik/jzar5AgQLUrVtX5ohiNG7sGP3geBy/OGrUSPrs008thhwRV/CkSjn5eRcrVkzUwUltmzdvsaiPiM8OH6pTx1OcR4wjNxs3aSzKRdR2qEZiOcHmxF6mTBlxULH8EBvHjy/G3bt3xRffmI7wps2bBaDGf0uwf/9+AimHdZizr68flSlTWhzo+s8/D0Sf8gsIM0+O7NmZ2G9ZdIO+b968Qc4lnS3SEdnL7VWqqE0AoTJjISE4+BVt2LiJDh44QFs2bxQHRmfIkEF8KI8FHqGfZs+kMWPHETaLIffu3adx4yewSeMb2rtnF1279hfxSkTkLVy4iDLa2dGRwwG0ZMnvVLNmDZG+fv0GWsj22e+/n0CBRw9T7969RDraGvDpZyJ+6NBBkXaTCeydSSMa5P/wwySaMH4cbd60ka7zlxoEiwn1y0EDqXbtWhRw6AD16dNb1H3fG5bHrPmSq6uLKBoYGEjeq1aT98qVtGrVSjFGkAwEBIfn67t3D/Xr11fc8wN+npDHfND2k8faZIb4ayYWHGYu5euhw8iTJ/Hjx45SZTc3cQ/ICwufyN4L2vNnJWH0mLEWy3q0+77nNfnHKTT5xx9p08YNfJ+rqXOXbjRmzGj+0m+kbdu308mTp9AMPWH77QR+ts2aNaUD+/0JSsW48dpkJgoY3sK7R0ORcIP4vLOGRwUL5Bdlhg4bzmayUuJZ9mesMaHDXIHD1GGinDPnZ/G5GTCgv1CAvpswnrJly0bLl/0h6uCM3PgkbvzMYSr6mZWksKR8+XL6Z1zmR8QVd+/cpVy5csqilDt3LlYszZ83mXEH5VhBlILJ/xZzTURty7K2utqc2CMa+D4+iDo8ol6w4Dfq2KG9RXXY16tUDq3dQyMbNXoMDRs6VJTHJpfUsGQDqVKnYs3NcgME9rZevXrxFzS9LCausMODNHv16mmRHtsR2ConT/5RrDowXkxA1apVFZNT1qxZxZfp2LHjereeHrXZhldJHDgN7WvvXl+RByKE3fvixYuUL18+faIEmTTjVUvtWrUoc+bMrK0V0dtq0rgR1apVU9c+9YyQgJeXF9sMy4k6XTp3Il8mN/STOEkScU0ScrWuZ4yP+PZbatCwERV1LE5163rx3kVDke3js5OasFaTKZMdZeFx4Z6lJoRNL0wYOXPmEONu3KiRsclww9i0Onv2T6GhQVNq2rQp+ezcKVZ+YeET2XvB4d6+vnt4Ir0m7Ozffz9R17Tf97w8PD2oVClnKly4EFVkJQErU5BLnty56RO+ZygqUpycnIRGjef+5ZeDaB+vZK2VoYjuUbZjfcWqDQpBl67deL/Ji9q3b8f7UqUJk+3hw0foqyGDxWejZcsW/LkpKg6Hx7N98eIlK1dbxLPGdw4kjvuVuKFMfBMcnL5n926BG1ZBWKHiOxaRRMQV1nn4jkLRwuRnlFDlQrjGOh11wuIhY1uxFY7TKRdE7V6lSqh7YRseaxaXxfLGmAnNqWuXLsYkYtsw9ejZi1rxBxOkB8mYMYP44BoL4oOcPn06PWnylKn0/NlzXpoN0NMQgFbTrXsPmjF9GhNPJou82I4UYM3JeFA0yGMia8oX+P5BxHfu3Gat1PwhgnYlJR3fC+4JAiJ8wzg0btKMqlZ1p5EjvxUmA2gNbdq0llUsrnJ5aZFoiBQPWX4iqWRJJ7F6MGRHKtiiRQtedTkyxp9TFSY1qeH5+vkJs9iaNWv1djKyeQOEDC22JJOcFBB8eB47vKEii7FpKYBNU4+IbcB6Wo4cORnDO+Hioxd8TyA7r/bm/zqPTp8+Qz1ZEcAz++yzTwXZR/S8SpTQTIZoPk2a1PqSHvHUadLozw9x4/MA8UOuXr0mrvItonvMmzevLBbqmob7at6sGc2cMV2YC1AApA4lIEWKFHr5UqVKkf++ffTJJ9VozepV/DkaxdrvzzRk8GBq27aNXi4+B6Bh9+3bh5InT05sdxabpbNnmb3orMceEVdgRSa/Y6iHMPBKzuYWo2Sw4psXzzWuiahtY31bhONUY4dNrEoYxP7bbwsFIcFeJeXevXv0mDVzo9aJPNgu7TLa8ew8UBYlOzZLQKNAHQhsgUFBt1gLzCXia9et4w/uGpo7d45ONsjAErRDx06C7N3d3UVZW74lSWI5r4IkYAP12bFdLHczZNBsuXIMKZKbv4QyDVfc6+dMNIcDDlL6dOmpe3dtpWFnl4l4s9hYVA9LktUTrAKYXKSAWB2LFpXRSF9B0Ji4hw0bSsO/GSEmYVQG0XTt0pnNLbv117cj/ie+jDC9/fXXdb0PTHZSkrDWaNSWzp07r3sfoE18mXf6bNfbRPsgvPDwke1G9urkVIIG9O9P+9l8Bonq84LGG55cuGjGG94svHHHnmSWZB3RPYbXLjRsfDbq1aurkzrK5uAJE9ga7eQw0ziXLCmawr16e6+gmTNniD2O/7d3HfBRFF/4KV1679I7CVJC6EW6f5EiiPSudJCiCCrSsVIUbBSlFykCSpHee5WO9A5SLfT83/cus9lc7pIL5JKcvpffZXdnZmdmv7395s2bd/tWr14j6b7yLy3PtBrw+p7dK8ZV38PjiqxZsxA7PFin4TXkmdjM4ixZs7gox1wTXt3OdUT1sftvWlS35FQfNGP4sGOaaheMinBjtC+aIh+aBOymdmFvGrGpjRkzSqaIJg8PcvVq1YhXxCVp8c8/y6IptL+dO3fSoEFDaPr0qaLZm3MwZe3IC5AYaFq0aG6So3ULoiri77D3Yzbj6fvsYWfGYjOmos2aN2UCdSxqYbq/mO34wBpiFls9uag1a9bKQ4HBDi5ymAlAsmd7XgjBkzpMGdiO48ePZy0G497Axo6FcAj6bhZuK5Qvx/bouUI4eCjXBJubUK5UqUDavHmLDBDoF9ZhjMCUkSRJYl5jmG4NICBIiDt8PLkWLGKawQSmkKXLllPOnI7v7JPeL9Nn+xYzlWPHjstANWPGTLlWZ80wvGu01+XJfu5cucQMN48VHAhmybt27abKlSuJuQEzHQjMMC/wTPFh8Hcq2xPcf6koGv5hcb1J02Y0/rvxYoaDCaoDz7DCk/C44oUXXhCOgmkWMovdKPHdhcD5Aa6QEJgtsWYCkzC+K/N4Jlq9elVRKNzxkJzoxX+hVUYvNuRc9Qa2r5d1YS+fy1+0F3hKmJ1Xt+2yYf1GKlc+tH39008/E28N+EsbGc4LPM3ZjghzRLPmzel7XlgEaWMqDRnzxVhZAIEXiBHYqzvz9A12Xmh93/KAYWTtmtVhBh+TF9VbLBbC7g9bXg6+/tq1X/aoCXzhpvAiKRa2oBWatQZ4B+zf/xvBJx9mpVKB8GQZ61GdhQoVIvg9w84LjeQ1xhUCWzE0R/ipw8yDaW9EAq0R96Mte9TUq1dPBk4QSekyZWXAxaIo1hpAKu3atxNPE8yqEiRIKARn6q/IXlCYzQWULCXE37JlC9qyZatkY4r83bffULfub4kPM/oIbX32rBnyQLrCx5NrQT9AtJjhAAvMQN55+21p80nvl7ke+xbX1orNjP+wbRuLwuN5Nuks4V2jc9mIjkFoUG7e7NCJRvC6AbvJ0bt93yF4imGm24A9X57hv/gJ4lOe3HmoapUqUmWbNq2pb99+NPLzUaw4zeLBNElETUVb/ptvtKeiTMZb+Lcxd9kWPpZnG3iWIhJ3XIFnaSybcVq3bkOYLcLMM/mHH6S6mbNm0W4eCOHtlTt3LnrzjTeofIWKomCCzGtwOsRd3ZLpxX/PwO8RX1hoTfhAE4ImjZtblRfdvCVv9ewlP0xyZwN2bhc/MvqRv0iwC0ZGsHiCL6uvCNYMsEAD96zIirtrhe0aU25P62z42uvipYMFT9SJmYCzQMOGhgyCeFJBn2AXN1NWez2oH4vacAM9dvQYE/+nVja+oxiA3bWNc+PEeTYM6bjDx5NrgTbmCoenuV/mgkaNHiP24GFDh8jMxXkx35Szb91do72Mp/vABQSNAdguxqbsjDN4ArOX2PpcYZa1devWSK8LuPt+ABNwon0Qw/X/wx/jeYcywAVcal+3QDokvLodJSL3fwX/+AoL7egTBi+YrfHBYIRPjGns/CMh6vlWD4+uhn8UIlp3ZEkdlcfWL5+7C8dD5CkBO9fh7lpBgvhEVvCguyIz1OMJ+UTUHrRgeJ24kvDqj0gLc3euO3zclbf3yx0OT3O/7PWbfU/6grKeljP1hrd1h4u776EhkfDqjMm8XLlyPtEs2x0OuBY7qeMYC+h2xwek2dcEcWyX8Oq2l4uq/Rgj9q1bQly9IroYeAlgYVAlehBImyZ1mC9t9LQcthU8UClShl5EDlvKt1OS8jXe51maiiIQVQjEmCkmqi5A61EEFAFF4L+GQESmmBjzivmv3Qi9XkVAEVAEogsBJfboQlrbUQQUAUUgmhBQYo8moLUZRUARUASiCwEl9uhCWttRBBQBRSCaEFBijyagtRlFQBFQBKILAa+6O3r6k/joulhtRxFQBBSB2ICA/XXk3uiPV4nd2533BiBapyKgCCgCvo6AmmJ8/Q5q/xUBRUARcEJAid0JED1UBBQBRcDXEVBi9/U7qP1XBBQBRcAJASV2J0D0UBFQBBQBX0dAid3X76D2XxFQBBQBJwRiNbHjveTbtm136rL7Q0QKQgAHFUVAEVAE/ssIxCixI7IRwp/h5fSuZANHav/ii7CBaHEOgi04C0LlrVq12krGi+9v3LhhHdt3EMIKL8uPjOAchFtDv6NTEM5v+a+/RnmTCCUWWQw86cRcDnuHMG8Q+74n5yIggYoi8DQInL9znX49sc9tFY/5+f3n4X23+c4Zj4Ie0537YfnGudx9Dh/ort5b9xyB553P8dZxtBD7tOnTOTBv9lDaNOKaFitWgurUqUd+/i8QQpA5C+J+luXo9kYQTado0eIckq0pfcThvJxFgmNzuD0MFB8OHERFXigm9SM03OHDh63iw4aNoICAklSGw+MhGLadqEGiLxQtRpMmfW+Vx86ECRPJr7A/1X6lDpUqXZaOHjsWKt/dAULdZcmajRC+z3wQri4yso0jyi9d4oivGJnzIiqL0IKIAuNOEP4ud558lCt3XipeoiQNHz7C7SBsr2Mmh+ozwbDt+/Yy9v0TJ05Sy5atqURAIFWsWFm+Dz3eCglObi/7tPuHDh2SaDZPW4+eHzsR+OvBXZq4dxUNWD+bFh/bSdf+vh2mo52Xjqds47qGSt987iilGNWevty+JFT6qG2LKdnIdlTg295UeeqHdP0f14pH39VTKc2YDpRlbBdC/UH8Bzl2/SJl57YKj3+bMn3RifZdOS3p3v7ndWLv+24/CaicIUOGUNeSLl1aWrToJ1q/fi3HEZxEb7/9TiiCRWEQdflgYkcs1PkcVHnV6pW0bNkSiSVorxChws6ePUeFChWU0FBFivjTzh3baN26NdS0SWMaPsIxEOzavZvmzptHmzZu4PBZm7nMTlq5cpVUhTa693iL8ufPb6+aEFruww8H0pIlv8h59erWodEczsxT6dGjO534/Zj18fMr7OmpMV5uyuQf6OiRQzRh/Hc0bfoMmjJlapT26fjx36nha404RmR12sb3Y9euHbR2zSrq2LFDlLZjKvtgwEC6GByo2aTp9t+BALTqjF92oUPXzlO8OHFp6Yk99Mvvu0Nd3MazR2iPE7lO/W0dNVn4JZVIlzVU2d9vXKK+6+fS6Q6j6FyXsRSQKRd9sG52qDI42Hr+GE3cv54udP6SLnX9ijbwIPHLsV1SrhOTfK+AWnSW88ZWb0XNF3oWczhMI5FM8DqxN2zwKk2dMlnI1t63Chy8NwsHSYbkyZOHtag/JS6nKXPz5i2JYl+wYEFJmjiRyb9Pn1AxBk1ZbDdv3iSBjxHvD1Kvbl0rkG3evHnYJHNd0lf8uoJq1qwhAZkRyqpuvboSxBqZRfz9aeFPCyhTxkxS1vrHIeKe4XpNODKESQsvDJZ1XgQ7Y8Z8IbMDzFjsAwXMPYi2Dm35lTp1JR6mvSqYm8qVr0D58hWgTp27EGJTQoARAi9jkISWjejqGMhe+l9tyl+gEDVs2Ig2bvI8cpVpE+HfEKkewbX37dtvksld/60CHuyMG/cV1X75fxKf0tw7BN7OlzevdXaNGrVox44dVKFCJQl0jQwE8AYGhf2KUAcOyIzwiRBEj+/ZszeNGPGR5OHaFy/+WfLefqcvD/TrGIfXZAaCmKsq/x4EVpzcT4VSZaDuAS9R0fTZ6csabamFX0XrAmEq6cBEO6j8a1YadkpkzEXbWw2hrMlCh2ncefEEVcqcm9I854j526VELZpzJOya36LjO+i1fCUpSfyEFO/ZONS8UFn68chWuvfoAaFPTQuXl/bq5A2gfazBn7vzR6j2vXHgdWIvXry4BB12Z0fHRa1bt56KFy8Wiiw3MQGVLl1KAuzi3P37HYTy5psdqU+ft8n5PTTr2R6PCPKuZC3XX7pUKcm6dOkyE3dGq1jmTJnowsULcoxo4yCVx2xTs0t8HgC6d+9GrzduQiCiyay1dusaeipnL+/J/q5du+hHtkX/OGcO26Hn0A+Tp9DJkyfl1LHcBuKNrl+3VtqZM+dHq0qsG3Tu0pXNIsNo06YNEl1+Hs9kILfZPj102HDCqxy2bN5IhQsXogzpM9DHH42ggwf28yDxCn3+2UirrsjubGSMs2fPJqeF1//I1IuBp2bNmuGecuDgQb7ej+jrr8dx1PgvpGyBAgVozuzZMitLkDCBED0y7t+/R9NnzCCsh6xbu5q6dO5EH3wwQM4ZwZilS5eOZs2cIbMDxFxV+fcg8GL2wrTl8hn6ZMtClxc1kM0zTQqWoSzJUoXKz586s5A3bO92SZYgEf3xz19W0m22k19h+70xs5iM83duUJakIXVmTZ6Wzt6+RldhBmKiT5UoqRR9lp/pHElT0rnbDiXTnO+NrdeJPaJOI/r7wEGDqd+774YqCvt6ObaXQxAhHIt8s/hBbt6iGeXIkYPq1W8gJhJz0vr1oe3xJh1a65IlS+jNN9+QpL/++svS5JGQ6LlEdPu2a7uZqQNb9OXcufP0/Q+TCaaUzJmdtHp7Yaf9b775VjRE2KlLs10fsmLFSqrHs4VUqVJSmtSp2bZcwZo5wAQFU0TGjBmoatUqMvswVW7dtk2050I8kwH5v/y//1nnoUyOHNmpM5MZIpiDuDJlyigEj8GxXNkytHnLljAmL5znTqZMnSrmKaxTJE+RnFq3biVFw+u/u7pcpR8/fpzSp09nZTVv3pKqVK0mH7PwjTWQHj26EWZvJiiwv7+f4IO8MqVLs4ks9EykBw/EGKRfeqkWPWDNHJHrMSMAZs/yDASzEBXfRmDHxd9p4dHt8oHtO3mC5+hMh89FMRvNtvI2i78ikDFkP5tfFh3fTX1KvyLHPAeXbXj/KmYrRCeYoPuvmU6T96+lzssmErHS53zun2wCShwvgVUV9m/c/Yf+vH+XnrWlo0ASPr51N2SwsE6K4p0YVVkePXpE7d94kxq91pAXMkuHurQNTNRtWreWNGP2gOaZMmVKIVlou9DiMSO4du2aeL/Yp+84Ee6Pbdu1py/GjJaHHGkgJ2O6wPHff/1NyZI5RlQcu5IrV65Q02bNafasGUzqftSrdx/5fPnFGFfFw6S9xtfXtk0bSWdeEVm3fj1dvHiJ1w0WWOVTpEgh3j4wd/hzO0ZA8LBFQ9bz7GP37j1sQnrVZFPq1CHaAjRZu6xdu46+Gz9ezDmpeQCB+QFkCILzRBIlTETFihflgbcvE3B66xR3/bcKeLgDDfry5SsyWOOUPn160717d3l2UY8wOzHifF1YzF60eDGXeUiP+XsUL348U1TqgrnMSNKkSULdc5OuW99GYMHRbfTrSYcjwje12otmDHPKO6XrUoK48ejinzfozSXf0rQ63aklk/xnLzanuw8f0F8P7tEjfgZAvInjJwhD1AaVRHHj0942w2nczmW09/IpejuwNu2+es5kW9tUCZNwXfesY9Sbkp+blJz+mBdz7XKHyyVPmNie5JX9GCV2eKSkTJGSevXqGerirl69SrdYk8+TJ7ekJ0rEIDGhP/NMyAQDaXeDI7tv2LiRypYpE6oOuEM2b9GSunfrSuXLO2xcKJCV7fpnzpyxysKkE8ambuU6drZs2craYgH24ikmCe/17yeeMeSwCjiVDnuIvufMmSNURuLEiXngaiXatT0DmjW0yVOnThO0UsipU6dki384r1ixojR92lQrzb5jNy+AxDEIjf3yCwoMLEnnL1wQryJ7+Yj2G/AaCUxizuKu/87lIjrGNS5bvlzWR1DWXLPzwBPHZjaB9v35yFGykI11D5iqMLMwEj9+fLOr238xAkMqNqYhFV1fYPrEKahOngAav3el2LR384Jm9akfhiqcdEQTOtX9G8rGphN3kiVpahpWqYlkj92xlCpmzhOmKM4/ceuKlY5FVwwwaZ5jhZE569JfNykD9+fh40d0imcAzqYg68Qo3Alhyiis1JOq4HMO17MxY0aF0R5dETVMDuMnTJCqz507R8fZ3bBgsHYK26/dLRIaacdOnakc29xbtGgeqju1atUSIoEJCHbYeawxV69eNVQZ5wN49MA2b3y+9+zday38Opf19Lh6tWpiY79w4aKcAu0Unj0wF5QKDKR57LmDGQ0WUtfx7MUITDPw74eJyQjKuBJcIwZJDErAZPq06a6KPVGau/5HtrJePXvKoi/cX9FHT+TYsaP0fNasspiNH7HN4XM9lWzZng81UHp6npaL/QgM2jCHqs8YQiO3/UwL2NWx56pp1CfwFXqeSfbxB3Otz4FOoyltirRyHB6p26/49K2rNHDTfOrGC6gQmIEWBC+k1s8fSLN4H77qWKCdfGADvZKnBMVhUm+Qtzj9sHeNnDPn0GbKnyoj2+NTy7E3/8X1ZuXh1Q0fati74dttBAuCzZs1pQ3rN7LHQ4j/OvL79n2b2rV/Q37wgvMGDx4kWjzysHAKu7KRg7zY9ssvSwia27c8gBhZu2Y1YYH0zTfeoPIVKsqAAoKqUaOGKeJyW7JkANVkd7ySgaUpTZo0Yi75ggekpxEMOPiVbOkyZcV0cOvmTfr888+ocuVKNHToYGrZqo349seLF5/+91Itax0AduahQ4fQa40asQkmDZst7olHSW+nWQ/6Bhtzq5Yt6MUq1WTAeLV+PcrKhBgVEl7/I1M/1iumTp1M7733AcE1FmsDMKHlZa+YBAkSuqzqxSpVCIoB/Oz/5plZ504dXf4OwtXJbdq05u9SPxr5+SjW9GdRkiRJXBXTNB9EoBebSgIz5qG1Zw/KD4Vm1O1OzwXbuO12ceybv4gus+3PDvfFi3/foU8rNqJqOf3lFPjKbzp/nOrmCyAsvvYPfJmyjutGWCBtmLeEpKPgyGqtqMaMYTR653J6zMuuvzTsE1GTUZL/zK1bt4Iw/YfGiA9MGFishKZXtWr4mmyU9MBFJSDQH/mhe/7558PkQgvFw2hc42BeqP3yK+L/HKZwOAm4Vlx3ggQhix7hFJcsnANsYFqJKoG55CaTOup0XtCDBm9cLF21B00di4kRmR4w00DdZq3CVV1PmhZe/yNbJwYp/PI0efLkHvUV9wImIWezTUTt4j4CE7MQG1F5zfctBI78cZ7WnzlM7YpWeeqOw15+l90W0wR7tpgK8QvTf9hWbzxekP6ATS2P+JOQbfPOgkXcZLy4G1WyYsUKUYLAhTBL49nGB7yIT4xp7O4uEP7ImJK7InWcY18UwzG8IcpXCLGhI80TeRKSwzlRSeroJ2zimAW4kvBIHeWxGOqJJEzoWvP15NyIyoTX/4jOdc7HIBuZgfZJtW3zEDi3r8f/DgTysQaNT1QIfNOTUNjnBwur+NgFPuz4uJKoJHVX9TunxTpiz5I5M23ftsW5n26PGzZswD84aeA2XzMUAUVAEfivIRBji6f/NaD1ehUBRUARiC4ElNijC2ltRxFQBBSBaEJAiT2agNZmFAFFQBGILgSU2KMLaW1HEVAEFIFoQkCJPZqA1mYUAUVAEYguBJTYowtpbUcRUAQUgWhCwKvujs6v1o2ma9JmFAFFQBGI1Qjg1dreFK8Su7c7701gtG5FQBFQBHwVATXF+Oqd034rAoqAIuAGASV2N8BosiKgCCgCvoqAEruv3jnttyKgCCgCbhBQYncDjCYrAoqAIuCrCCix++qd034rAoqAIuAGASV2N8BosiKgCCgCvoqAEruv3jnttyKgCCgCbhBQYncDjCYrAoqAIuCrCCix++qd034rAoqAIuAGASV2N8BosiKgCCgCvoqAEruv3jnttyKgCCgCbhBQYncDjCYrAoqAIuCrCCix++qd034rAoqAIuAGASV2N8BosiKgCCgCvoqAEruv3jnttyKgCCgCbhBQYncDjCYrAoqAIuCrCCix++qd034rAoqAIuAGASV2N8BosiKgCCgCvoqAEruv3jnttyKgCCgCbhBQYncDjCYrAoqAIuCrCCix++qd034rAoqAIuAGASV2N8BosiKgCCgCvoqAEruv3jnttyKgCCgCbhBQYncDjCYrAoqAIuCrCCix++qd034rAoqAIuAGASV2N8BosiKgCCgCvoqAEruv3jnttyKgCCgCbhBQYncDjCYrAoqAIuCrCCix++qd034rAoqAIuAGASV2N8BosiKgCCgCvoqAEruv3jnttyKgCCgCbhBQYncDjCYrAoqAIuCrCCix++qd034rAoqAIuAGASV2N8BosiKgCCgCvoqAEruv3jnttyKgCCgCbhBQYncDjCYrAoqAIuCrCMT11Y5rvxUBRSB8BHac/ZPeWXqWVh2+SfTgUfiFNde7CMSLQy/mT0Ef1cxKJbIm8W5bXLsSu9ch1gYUgehHAKQeMGo/ja6Xnea3yEvJEsSJ/k5oixYCt+89ou+3X5F7sr2Hn9fJXYndgl53FIF/DwLQ1EHq3cpl/PdclA9fCQZWcy9wb1a2L+DVq1Ebu1fh1coVgZhBAOaXVgHpYqZxbdUtArgnYhpzWyJqMpTYowZHrUURiF0IsE1dzS+x65agN3JPomG9Q00xse/eP1WP/vnnHzp37rzUkT17NooXL95T1acnKwKKgO8hEG3Efv/BA/rm628oKCiInnnmGWrfvh0lTJjQ9xCL4h5v3bqNfvvtN6kVuCRKlIhSp0lNfoX9KGPGDJFubffuPVS3Xn05b8f2rfT8889Hug49QRFQBHwbgWgj9lUrV9LgIUMttLJly0avvFLbOv437Pz++wn6+uuvqWHDhlSyZIBHl7R48c/0zbffhin77LPPCj5ffvkFxVetOww+SPjggwE0aNBAl3kPWJH4888/KWXKlC7z7YmPHj2iS5cvU5rUqSlBggT2LNm/des23bt3l9Klc22zvnHjBiVNmpTixo34cXr8+DGhfGpuy5Xcu3eP27pHyZIlc5WtaYqARwhEm4197rz50qE8eXLL1hx71EsfKTRp0vf0w+QpdPTY0Uj3OEWK5NS7V0+ZybzwQhECASxY8BNNmzot0nX9F07Yt28/zZg5i1auXEXXr1+3Lhm4DRjwIeXMmZv8/V+gipVepCNHjlj5zjvz5s+ngoX8qGzZ8pQzVx4aNHiIVeTOnTv0euMmlL9AQSpeoiSVK1+BDh06ZOWjD0jzL1KUcnB7w4ePkPtmFXDa+f77HyhvvgJU5IViVLpMOf6eHLNKYHDp8VZPyp07LxXi/jR6vbEMTFYB3VEEIoFAtBA7NKdly5ZLt4YOcTw4K1mDv3nzVpiurt+wgerVf5UKFCzMD0BRatuuPf3yyxKr3JkzZyStWPEAfkjy02uNGtMXX3xp5f/999/yYOOBw4Na/9UGNG7cV2ICMoU2bdpM5ctXlM+Nm/zjjWAZMeIjSevUuYtJoq7dukvakaNH5cEtVbqs1Is+moccZPLd+PE0ZepUOe+jjz6Rc5o3b2nVE9FOypSp6O23+9DQIYNp/ry5lpnqNF+vkR07dkgf6tStR89ny0F+TFxdunajS5cumSJut4sWLaZ3+/Wnyi9WpaxZs1FAyVL08cefEExkRjy5VlP2r7/+Eo0ZOILUar30Mr3//gDrnsLkBkyqVK1G2XPkIuAGDRv3xwjuA+4h+oS1AU8E36VKlavQV199LSS6du1awv3C/YGMnzCRVq9ZS1u2bqYTJ45T2zat+TvyOkHrdhZozl27dqdhw4bSSS776/KlNHHiJBksUPbTTz+jmzdu0sED++nY0cNUKjCQ3nqrl1Rz9+5data8BbVo0YJOnzpBmzau53bX8IztG+dm5Bj3buiw4TRr5nQ6dfJ3atOmFTVu3JQws4CMHTuO9u/fT9vZfHbo0AFKmSIlfx/ekTz9pwhEGoFbt24F8Rc86MqVK0Hnz58POn78eNCePXuCfv31V342o0Zmz54TlDZdhqASAYFSIT/scsxEGKqBn35aGJQufUbJQ/n0GTLJ/tRp06Qck3oQk4SVnyFjZtnv2Kmz5D98+DDI1I3z7XUxqVltLedrQz4+165ds9K793hL0l6u/YqVxvZqSWMSla3pE86tX7+BlDt9+nRQpsxZJR/p6BeOWVu06nG38957H8h5JQNLSxEmvqD5CxZYdS1bvtw6dcKEiZKeMVOWICZK6/pq1Khlldm4cZN1LvplpE3bdpLOJBxUtFgJq8zAQYNNkSBPrhWFgTOTq1WHuQ9FixYPYs1T6gPeBuPyFSpZ+BjMUOjzkaOsMseOHZfzIvrHWm8QDyZSDPfEWZo0bRb06Wefh0pGX3n2EyoNBzwgSvsnTpyQPFxXYb8iQTwIynGvXr2DOnbsJPv4x6QfhGuB8FqGXJO5XqSxAhJUtlx57IYRfLc6dAipi5WBoPwFCsk5KIxnY/KUkOeBlQb5Hv3xxx9h6vIkgbqu96SYlokBBKLi3oCfwdPga/A2+Bs8Dj7nmWZQtGjsc+fNkwGnZo0aobbzgs0zSITW++GHA0WzLlLEn1au+FU0oZkzplOdV16R8zDVhaaYMkUKmvzDJDp75hSt+HU5vdWjh+TPnDWLMD2GfPLxR3T48EHRgnE8fvwE2rJlK3afSC6zDfajEcNFc+vWravUsWnzZuIHTxYoz587Q7CLQz799GPC8ZrVK+XYk3+nTp2iLKxJQ/t9440O4s3yXv9+9GLlytbpTZs2oenTpkofNm/aQKNGfi55u3bvposXw9faPxzwAf3y8yI6euQQ7dq5nV57raGc+/PPv1j1m53wrhVlZsycSQcOHJDiqPfE78do545tPDMaKxicOHGSYJaCfPnFGFq3djVt3LBO8jAj27Bxo+Q1fr0Rvc6ft/v0ZhNELkmL6F/ZsmXFhIH6+ZkMUzxunLj04P79UOnx4sWls2fPhkrDQfr06ale3brUqVMX2rt3HzH5sh09LVWvUV3KtmrVipYsXSbfndWr19AnrMH36vmW5MGeju/sQzahGIkr7Zwzh6G259lTKWfOHFYaFspz5MhBZkZ24cKFUPk5c+UimGfOn79gnaM7ioCnCHid2EF869atl/5Ur1FNtjWCCR5TcUNI+GKfO39e8ps1bUp+foVlIevFFytTkiSOdyts3bZd8itWqkg1a9aUxSp/fz8ydntD3FmyZKGWLVvIANCjezfLrLFz5045/0n+FStalFq3biWLZK83aiRV4MHb8RR12vvhTFKYoh8sV7sAACJeSURBVO/dt4+uXLlqFcPCXvbs2WnFipX0FU/5Dxw4aOVduhw+sQMTCAZTTPtvBZvBXJlxIrrWbcH3IW3atEyKHcWTJ2vWrFSqVKC0AbMDsAF5XWdzB2zLa9g8kj69Y/Hx4MFDUi5Dhgw0ZvQo6t3bYd6QxAj+YQAYMXwYjfjoY+LZlpimrl4Nwahc+bI058e5dJ6/TyBe1oLZxPFbKBOQvYmPWQEABtWq1xATzOTJP1iL1YULFxLFoF//98Tm3aRJY6pTx6Fk5M2bh9KkSSNYop0LFy7SZ59+TjDR4NhZrt+4TomDv8cmL2nSJKIYwJaP+50kccg7RLBgniB+fMk35XWrCHiKQFxPCz5pOTavEE9x5fQBAwYyGcexNC08AGx2oE4dO7BGFaLp+LPG7iwgPpA/pIh/2HykX+SHC1KgQH7Z4h80KzyE0OQPHAwhQquAbcfYO21J1m6WrA5iRAIeaCNBLh5ikxeZLbS3rVs2iUfEdibGpk2bE+ziqdir45NPPhZbeLu27WnpsmVSLWYHZsBDgvPAYG/73LlzQkxs7pDk+EwYwAXi6ryIrhX1QTCzciVng/NRN+zqznKdB/unkVatWrJ9+nViswmtWr1aFqwXLfxJBvhWLVuK9l2S1xDixIkjRJwvXz5Kljx5mCaxvoDF0RysSX///SQaOWoUvfpqQ1q0cAFh0FqyZClj/6kMPvg9wLv9+ok3S8cObxIw/PrrcdSlc1caOXKUeLFgFnTs+HFr5mZvEG6szjMJfN9A3sbt98GDkJkGsHvAzw3aUVEEIouA1zV2eB0Ygb/2nj175cEzafOCzTSpUoW4pZ1gt0FngfaXPPjhhFuhK8mZK6cknzx50srGA3Lq1Gk5TmsjZFMA2pIRox27IjtXbnDmvKjcop1ybG4oXbqUVGtmIbNmzbZIfTgv9sGksvCnEGyBjzsZOpRNSEzqIJf58+fKomL//u9KcVfnRXStxoXQ3X0AKUIweCz8aYGY1WBaMx/MfJ5W0Edcz/JlSylLlsw0Z86PUiUIGOYfmId+279XzFUYiPLmyROmyUULF7G57jDNmD5NBqnvJ02krDyzGT36Cyn74cBB1KVLZzEXvfpqfZoyeTINYZddzBQgZcuUod27d9Ie/uzds0sGfFftoGzq1Gno1u3QC7hwHgCW6DO+2/YFXnwvofjYnwvUo6IIeIKAV4kdds3t23dIP/rwdHvuj7OtT/9+DmKBJg3SwQ9poL1AMBgYjxlMk1EGAs0bsoY9IQx5w5ti/XqHqad4sWKSD8LZvHmL7MOGfDv4gfIvUkTSChQIeQHP2rXrJA3mgy1sM38aMb7JZuYQmbowmOBBhtcHL+6yTXqjnA47MAR2bwjIDGYm+Dn/whqlEVeDkcm7fMVxbiB7dYCMMM1fusSh+Yd3njnfeWvIC/fA4Id60G+ImVFhpnaQZ0kwq5lPsmRJLX9w+GvzwjjBfu2p4Lty32ZDv337jnxXnGcPIH5gBBMQzEKBgSXDNIGZBc6zD2TFixcjXnSWshgQ7OcVK1ZUZp8wu9glVapUMjtYyLPTKlVetGdZ+2hnLys1RvC9hRtm4cKFJQmY7dkbks8LY5Q4cWKxw5tzdKsIeIqAV4l9/vwFMtXHlLhdu7bsAlje+rRt28aaZkJrB2EhDfLrryuoaLHi4iIHt8YNvOAGgfYEwQMHP2C4NLJnAX39zbeSjh88BQQESJtwCWQvDWJvEMkrVKgQ1Q22j2bJnJlgR4b0YZcy9kihl/5Xm8IuxUkRj/9VrVpFyrK3h7j5wffZUznFi6fsXSKulM2ataB7TF4wt3RkMxWkVs0asgUhwIWz9it1xATgySsDsB4B2ciLli1bthZcn2ZtoE2b1vTcc89JnQ1fa0SBpcpQ/vwFZdEXiSCx+vXqSX7fd/tRhYqVxUUVro9ws4SJATKRF0B79uwt5hDcU0/ku+++o3zcFmzi8F8vGViKypQpzWsuDnxQhxkkMVjDN7xz505CksjDdwVujBCQKRZNMfhAoEQsXLTIInN/zsdMwJjoJrArZApeuDcKhhkU4TLL3k2yRoRBFwLtu3WbtrSbCRpSr24d2rZtmwxiqI89dygdz2wCAkpIfoMGr9JknhEAB2jrI0eNlntuH3SkoP6LNAJ/339MN/9xfOcifbKPnuBVYjc/QsKX10zfDU6wD5ctW0YOTbl+rMV37dpFbMfwfmE3NLFpFixYUMpVr1aNxn75hfzUHtrt0aOOH3iULuUwW2BwgNdIXX6IoEVhAQ0PBjwfMFvAAGOkb993LM2R3YX4IapJM2ZMM9lPtG3Xti1VqlRJiAULhHhwIyswjUBLx6Lx3LlzLA0QAxMICvZ9mGdOnz7DP16aQq/Urh1hEw3YjABMcP2w0WPRbu2aVZQpU8YIz3VVAKaWefN+FC0c/YXmfvPWLb72ilbx0aNHigcJPJhg7sB6waFDh6ly5UoUhwcsSIYMjtkIfrXpvLBoVeS0g8VOeEK9/15/IettW7eIDdzcW8wScufJJwNkUx4goSwYTxZUNWPGTLrLMwUI+tK5U0cZ1OFPzy6HVKZ0aXrzzTckH9cA0sfvIeCLj0XgSRMnWDZx2N/x46ZC/Dlw8AD9OGeW2OZx8qVLFwmzxT38igcI1lBGjxlF7JordSFv2rQplj0e3kF169ShsuUqUMGChRmjODSCvbBiWtrO+Z2e6bYh5NN7M+X8bC8tPXwjTNf2XfjbKrfhRIjZae+Fv6z0Xw5dt85rPvO4I33ITn5mrGS3O1Zf3t/GcUNCTnim31apB+87t8v2M39Suo955tNnM6V8Zws9w+3Y20fZN348IedW+Mbh5XXnLi/6d98oaWYwqPLdITlGWV+RZ+D3CJKEFoEPNEKYA+BpULVq1Ri7DmhPsNGCoI0bob0zMNXgxy5p06Zx+aIraFOXLl0WTwxX55u60A4GnajUjNC3RIkSRmmdpr8gLr5nbn+Sbsq52uK+QuyLrq7KRSYNXiD4rmDAwcDqSuAZdf/+A3kHjvPrETAoQAt2Hvhd1eOc1vC112nO7JnOydIf3HNjGjMF8N3Oxb/sXL1qBWFB1Qi+/7gGfNdczYCAG54N5z7CJHSFz8OrBpyvC3VjFgZvITPoIA3fSwyCGPBcCRZ07/PA87T3CGQcNKacqyYilQYynbj+ostz1nT3p4q5kll5Q1acpfcXOsxYvaploU9rZ7fyMBicPH2HWpbNQN83yk2PmZfjvLeN6M59GlInO/WvksUq627H3peprfJR02IOxQnETn8+oEnN81qvKj51/S7lGLKb2B+VKD4rdHF4DQpaOysia7v7UYWcjn6P23SJOvMAQ+kTUVD/4rTx1B0q97nDJLa2h7+Uizd8Fz28+Dd9yf3uzP1/WomKe7NixQpRIvA9wXOH7y0++N7L52k76a3z4QoHsnBHyvgJPjROVw8i+gRNEi/Rcne+6TfaiUpSR73oW1TXafqLwc6ZsExeRFt8CZ6WMJzbgEcHyMsdqaM8+ot74Yr8oMk6E6ZzG+6OXZE6ymJG4QojDCIwx9lJHeXxHcEsyd13CZi56iM8VmDWc3VdqDd79uyhSB1p+F66I3Xko66ovkeo92mlXIGU9Hh0OTryfnGeajnMcO8uOxOq2um/hWjxXx0I2Uehd4MJ8Yf910U733SSNXomdZ6aUNuS6ULV48nBkLWuBxtz7vDV7EEHUk+XiG4NKUn3hwWSf57kGFnpveVnTTEqHHwt9Mc9GWwwuzCyj8kcM4mH1xwzPL+Mjus2+bF561VTTGy+cO3bfw8BmPTwIyqVyCPA4xGUXcqbNhF9WMKhKW9m4jPyx98P6BBru6IdPxeP/maChNZspDG064RxiW7fp02suc/Z73B5rVE4FWVIGnmXzsM8MOw855iBmjbs24lHb8phx4IpKVnCOBSPNfb+FRymx/XHbgtho4BF1g8f02nu724bsWP/3C0m9eD3pxfO4HpGam83tuwrsceWO6H9UAR8BIH4cZnhIY8dG/z/+SBr6GxfCciRlKoEm2d+smntSeI/Sy2LO37/MWfvNRrDmjuke1nHOoscePovdUIp+dk691r7w+s8G2ApaQscnTdNMDEzUV/CbIElZSIebFIkkP3jf9ylbbbBajsT+9Gr/0geJU9AqXjA8hVRYveVO6X9VARiEIGbHIz50OW/admRG9Rvs2ORslTmENPEj8FmmJfyJKNaeR3269m/OcjbdLtzaYd9ejTOv8KEmSoh1ciX0mR7vC3P9vCAfCloxs5rhJmCs9xj7ZvusT2dJXPykNlAUltA72t/OfJRplSwJn7k6l3CAjBhBsGf/Rf/YWJ3zDpK+pC2jmvi4UpFEVAEFIHwEdj/+20qOHRXSCG2jY/6X3Y5fsia+iKOsQqpnCsFGQLdxCaPP9nVENo6JOD5JJQ2SxK6GmxCeb90Ono2WPmXApH4179iRqp75CZ9vfmyx2fBlORKirHtfAv3f+XxW0R/PaDS+VPIWsimQzdo+TFOYynuQ/Z19Fc1dqCgoggoAuEjAM8Stq+nzpKY6hZPS3v6FKHAbEnkHHFtDNac97D5YjPb0IWxefFyOWv4dulXKmShtH3gE5hhgiurXSg1v9sjEb234VIokxCy4/Ggg0VZyF1o78EimnzwvhlscOifMbGkLoA5iaUUDz6l+TohJs3fx4hdNXa5ffpPEVAEwkOgfO5ktK5DIZdF5h8IMbn0YPdIu8xlc0x9PybhYMkSbM/GYRa2Wz+pQNP/pEIG6jPvpFUFPFggMgtIxXWzffzMDYctHelnsRAK4QJZU4a07W88Y4J/xFScSd2aSQSn+QWTv6OC2P9fNfbYf4+0h4pArEZgTPAiaZ7sSel11sLx8QteQJ3OeYZwo/oi3ijFNvsErnXTV7kvkGGbL4l3znWeUQyFCyRLLp5pxLWYm0JcHiWXqFjmxFSctXa7+BnytyfG4n3XqMTiDmvXFAFFIPYg8Ps1Xly85HB7/K5ODusHS3vO/0VFP9ot7o3b+BegxmwTlT2HG2O7wLQ03oV3zNAaWWnurmt0gduWHyrFYxU/WPseXTNrqG4k5XoIGvwN1ujZ5JQv3XMk5ngMGliE5Ty05UuiGrsv3S3tqyIQyxBYeDDYDMOEWCZYS0YXi2RiG3USh3vgggMOn3VvdL13hUwOB3unyvPxD5M28C9M46Mfj9jODlJngp7VNj/9r0Aqp9JE5YNt6Dl4C2UeC635Mzm8fsr4mLaOi4u1rxQIg7wmKAKKgMcIRMXP1j1uLJYXxPtfsIiaNnigienuRsW9ieiVAtFmisE7ML7hqD94VwZ+Vt2+fTvrZUoxDXRMtY/A3HiTpRH8LD9nzpwSJg6vU1BRBBSBp0cAppak5FumlKe96mgj9lUrV9JgDlJgJFu2bITX7P5bBC/nep+jBfn7+Ul0H0+uC28O5KDPYYpi4MPb/hDz1AStCFNIEyQ606BBA10igXe9X+OXj2Xgd8DYX8LlsnBwIl7qhReCmYhGpixewXvv3l3rbaAm3Ww5iLCETDRRqUy6qy3qR3lX77JBefQbH7xLXkUReFIEos3Gbl7NmydPbumrOX7Sjse286B5T5gw0Qr6Edn+deBXxeKVxXh9MF5KhdfL1qj5krxpM7J1/RfKI/jKjJmzJE4p3stuF0Q+wqt2y5QpJ6/VXfDTT/Zsl/t4B3opfq98C35fvRGkIXRe/gIFCe/Wx/v/Dx06ZLIlAAzS/IsUlSDkCLYO4nYneO1v3nwFqMgLxSSewNFjjtdOozyCgeDd8bn57ZN4DXCj1xvrvXcHpKZHiEC0EDtee7ps2XLpzNAhQ2S7kjV4EyXJ9LJrt+4ciKOiRJbBw4mHCe+7btW6jQRVQIT7Wi+9zG/nK0BvvNmBVq1abU6VLcw8P/wwmaPM15QHG4EdEHPT3g5e3Yo28LFH7sF7yk06HjLIpEnfSxqCLYAcqlarTngvd4UKlWjx4p+lDP4hSs97738gx8uZ4E09CMDgqXTs2FHeMf7DD5Mk5B20PwRdGDTYgRfqGTfuK6m7efOWoap9rVFjSf9u/HgrHVjgGBigz6VKlxUs8KpjIwgmjveQV36xqryu2aTH5i2+S5UqV6GvvvpaSHQtR9Pq1LkLHTl6VLq9bPlyDlgxhb8bK+jkieM08MMB1LVLt1Bh51xdX//33udAJ46XRJl8BOS4eeMmHTzAUb6OHqZSHIHqrbd6STZeV9yseQtq0aIFnT51gjZtXE+r16zhOKjfmNNDbRH0Y+iw4TRr5nQ6dfJ3atOmFc/smsrrgFEQAcb379/PEce28uBxgN8AmZIDab8Tqg49UAQ8RSBaiB1BgfEgwPyCYAz+/n4S3mzxz4tD9RNEhge0QcNGQmIIgIH4kr/8soQj5tSkJvwg7N69m0CYCxb8RE2bNZdBwFQCckVEJMRVRaAORKdHxJzGTZpaUepBeGgDH2hkRu5wiDWTbtLwHnGkDRw0mIMvdKTffjsg9RzmkGZdunaTa0JZtIm+Q1DnCX49LD6PgwcIyYjEP0SBql+/npwB7Izg3d/oD97zbRe8jhbpf1wL8T4AUfXv/75ggLCDCFMILOyDwlaO6INB78CBA3T+vMPH115vbNyfO3ee4PrVV2Ml0AZMMTNnTKd8efNKd3HfU3D80Dy5c8vMpyiHs8P6zqNH7BXhRpYuXSrE//LL/wtVAnXl5EDXeGUvzDMIdvI3KwaQw4ePEL4f7TiQB2ZYeHXxWz160PQZM0LVYQ6mTptOVatUoeLFi0ucAQRlwSC7YsVKKTJl6jRq1aoVBx/JIK/t7dGjGwd6/0kUGlOHbhUBTxGIFmKfGxywumaNGtIvs503b77LfiLowehRI0VzMeHmQEwVKlagXTt30MQJDs0UmvXGjZukjuPHOSAAhy6DtGjeTAIZTxj/nTz8O3fupK/caFJyQgT/rly5Qs2aNqX9+/bQlCk/SGk8lGbGsH3bFglAjQwEPT5/7ox83NlRI2hOsv3YVg9BrFN7kGNJjODfiRMnZbaBYgjsvG7tao6huk4ICLOeDRwiD9KY7fiw5b/dp7cs2EpiLP9XlgN9w4SB2RQGaWeBKSsOz3Z69uotYe+6dOlKrVu3kiAazmVxDHL+cOBg+mjEMHrANna7gGiXLF1G48dPkNndJ6zBm2hMmFHB7PLQNnjHjReXB1DHAG+vB/vnz52XQcKkYx0lB7+L/jQvoEMucLQvDCJGcubKJeYZXxlwTb91GzsQ8Dqx48FZt269XG31GtVkWyOY4GEKuHiR3/XgJNBqGjd+XQISvPRSLSu3RYvmElwDaQinBsEgAMFU15hQunfvJouOtWu/TCVKlJB8kPuTChbfBg8eKHXWqF7dWkTbunXrk1YZ4XkmpigK3r3r0BIjPCm4gMEC5HGdF+pg24W5KH16x3s6ELYPAu1wzOhR1JsDjfuK5M6di0YMH0YjPvpYZnOwa5vvAK4BnkXffD2OZs+eI3FRcTxk8CC3l9erdx/q1LGDYOE8TBQuXIjNIX2oX//3xObdpEljqhMcNxdxT+G5BBMKCB4Brj/79HOZxbmys1+/cT1M+D+EKMTzgVkeIjQlSRzya0cE3EBwd+SrKAKRRcDrxP4TR26HxwhkwICBYv/u2ctBJHgA5i9YEKbP9licaTj6jhF/P3/ZxdQX4dQgRmu7cPGiHCOyO6bFRgoWyC+78EAJT/BguRNMxe1Ea1wRH/Nb7bwlp0+flqoxgCG6T3jy0KnvZ4PNQsAGawxvv9NXPmYQve7jZNGqVUvat3e3mCxWrV5N5StUomPHjgtEMFM14zUIaOmLFv4kpqa2bdtb3xM7jiB/LLw25xmeK4EZDHFNMfh9NW6sBJs2Mz9ET/qaB5DJvKaDNQys65ThGL6IfoTvp7NggHGeEeA7B/I2XjgPHoTMGHDvEPQb7agoApFFIG5kT4hs+XnzQ8wtv/32W5jT57GZBhqTXdyFlcPD4U5ysf83BHZRmE4QhxJy8uQp2RoyloPgf3f+DLGxw35txAwW5jhhggRmN1q2WI+YM2eOtAWt0Vns/cYsBW59ENNv4yIJc8G8uT+KOcpeR7p0jgg49jRf28d3BN+H5cuWimaOBe5+/frSmDFfUsECBWjokMFySSD3wFKlaSmbVGrVqmldJr4n0MSrV6tKn332uaRv3ryFMChi0bRlyxZsohlEXbp0FnMVCmTJkoXqv9qAGjZ4VbT1smXK8JrPThkckrNd/5tvv6O8efJYbdh3UqdOQ7duhwR4Rh7WN6A0ICQfzreb3KDFQ/FJlSqlvRrdVwQ8QiCsauHRaZ4Vgl18+/YdUrgPT/fn/jjb+vTv966k79vHHgfB2pZntbouVbx4MSsDroIgPNS7bft2SS/iX0S20LyzZ88u++vWrhcyxMLn/PlhZw5SyMN/qdM4ZhYXg2cOHp5mFXv0+JE82CCX+q82FBMVNL8BH7xvlSnEod0gmPbDzowHf+KkSeL3bBXinSL+jpkNZkqYqfj5FbY+yZIltQY9+EtPnTYtlHeQvZ7YuI97Cn9zI7d50RsEWaSI45pBzIGBJU02E2YyypMnN50KngGZjIf8StnSpUqxGeRPscXv3buPLl2+JGYR7GNwxffCXlcxXogFpsDfLgiCDXPdQp6dVqnyoj3L2kf/9vKivhF4Zx3hRfjChQtLEu7Znr0h+Xv27JEBGXZ4FUUgsgh4ldhBltAi8aVv164tu+SVtz5t2ZvATDOhtT+tQJt6o317qQZuZUWLleApekXRpqDZ9ez1ltWE8X6AGah48QAqGViafv/9dyv/SXbg8QDBYi7cHf38Xwjl8xxRncW4v3ny5qM6devJegGm6AMGfEDFioUMWDVqVLcwq1wZHhYB4vlicDRtgETq16snh33f7ceLzpWpbbv24voYULKUTPGROZEXIHv27C2+2sarx9QRW7ffffcd5ctfULR0mFFKBpZif/XSVLNmDekyrh2uq/gREGQ7D+wg6sCSAXIMzyBo5CB8LITbPw0bNuQB0E/SYM7zZ7LFTMCY6Sbw4jxMgLCvQ8wMCV5a7733AZ1jLy5o+hBo363btKXdTNCQenXr0Db2QoKLLer7lGcJ6TjodkCAYw2oAc8CJk+eLIMJtPWRo0bzbxpqeC0ounRK//1rEfAqsZsfIeHL6xzlHbbIsmyThJhyT4syFjixcAqN/NKlS/LqAizE/vLzIsqcKZNVfWu20RoNDw9jXnaV+3X50qf6tV91XlTFw4nrguthPDaDhGc6sjpj24Hmh/42b9aMNmxYRx07vGnLJenfu33fkYcd5HDz1i12setOfd95O1Q5HIwePVI8OFIyER0+fJgWLVrMA81hqly5EscgcNz2DBkctnvY8RNzv31BPv74I1rx63Lx+cd6yratW8QGDuUBAjxw/wv7FeGBMr+4xMKX3QyQmM3d5ZmKJwIMMePBj51gR8ci9KSJEyybOOzv+J1FIf4cOHiAfpwzy/ql8KVLF+nnn3+hPbsdxA7Ne/SYUdSxU2epC3nTpk2x7PHwTqpbpw6VLVeBChYszPcoDo0YMdyTbmoZRSAMAv/al4DBUwJ2S2dt1o4ANK1n+C9FiuT25KfaxxT+3r37ohE+VUXhnAxzwJUrV9mTI71FDOEUF8+K+/cfEMxF8LawC3zgoYU6D7z2MrF1v+Frr9Oc2TNddg++6zdZa8d6A7yDIDB/5OJfdq5etYJ/5JbP5XmuEvGjKAykzhjBJIS1GaznOOOKek6dOiUL+WbQQRq0fAzIGHBdCfp9nwceKAhPI1HxoqmnaV/PdY9AVNybWPMSMPeX6Z0cs4AYXu3uHq7wzokoDx4OxsshorJPmo9FUbvnUET1hOdP78s2XHekDjxAtGYB3eCDQawuuytGhtRxrjuShdKQJXNmU32YLWYOzoJBJrzvHfrtapBwrkePFYHwEPCqKSa8hjVPEYhuBAry4vO4cWOju9mYaS9eHLp971HMtK2tukVA7gnfG2+LEru3Edb6FYEYQODF/Cno++1XYqBlbTI8BHBPcG+8LV73Y/f2BWj9ioAiEBaBjzj8W8Co/ZLRKiAdJUvgfS0xbC80xSAATR2k3n3+Kdrew88ke22rxO41aLViRSDmECiRNYkQyDtLzwqZ0AM1y8Tc3eCW2fwCTR2kjnvjbVFi9zbCWr8iEEMIgEBWti8QQ61rszGJgNrYYxJ9bVsRUAQUAS8goMTuBVC1SkVAEVAEYhIBJfaYRF/bVgQUAUXACwgosXsBVK1SEVAEFIGYRECJPSbR17YVAUVAEfACAkrsXgBVq1QEFAFFICYRUGKPSfS1bUVAEVAEvICAErsXQNUqFQFFQBGISQSU2GMSfW1bEVAEFAEvIKDE7gVQtUpFQBFQBGISAYvYTTCCmOyMtq0IKAKKgCIQMQLOfO18bBG7c1XOBZ3z9VgRUAQUAUUgdiLgktiV1GPnzdJeKQKKgCJgEAiPp10SuzlRt4qAIqAIKAK+h0AoYg9vBPC9S9MeKwKKgCLw70fAFW+HIvZ/PwR6hYqAIqAI/PsRCEPshv3N9t8PgV6hIqAIKAK+hYDhZ7N17v2zrjKQ5ird+WQ9VgQUAUVAEYh+BNxxtOFt0djNQfR3T1tUBBQBRUARiAoEDI9ja5licGA+aMQUiooGtQ5FQBFQBBSBqEPA8LPhbHNsWrCI3SSYggkSJDBJulUEFAFFQBGIRQgYnn722TAULr0MlYrCKIjtw4cP6dGjR7HoUrQrioAioAgoAuBlw9OG4J1REWI3mWYbJ04cwufGjRvO5fVYEVAEFAFFIAYRAC8bjjacbbamW5ZXjMnAFqMBTty9e7do7qawbhUBRUARUARiDgFYUvbt20dx48Z1qbWDvyGWxm5Ue2xxUvz48cUks2vXLiX3mLuP2rIioAgoAoLAgwcPaMeOHfT48WOKFy9eKHI3/I2CopwbTd1KCCb2hAkTUuLEieny5cs0a9YsOnPmjBK8wKv/FAFFQBGIPgRA6ODfefPm0dWrV4WXwc92rR29sXN5XBwEBQU5WD7YBAMzDEaE5557jpIlSyYjxPLly+mPP/6Qq7l586ak4Tx8IGYrB/pPEVAEFAFFIFIIgIshhqChhRsFO0WKFJQ2bVrhY/Ay+NnY2Z21ddQRF/8gqAwF8MFIAHdHrL4mT55c0mCaQeX37t2j9OnTW8SOczE1CE+U9MNDR/MUAUXgv4KAIW931wv+hRg+BoGDi5MkSSKaetKkSYXskWY0djuxm3qF2E1jpjJD7okSJbIawD4qx7QABnyQuSHsiIjdNKZbRUARUAQUAfcIOBM7yBvkDv6Fcg0N3m6GMaQO7rbzeBhih3pvCBtbjAxIQ6X4QIs3pG626KY5x32XNUcRUAQUAUXAHQJ2YjaEja3hXxA8iN58jCnGkLr9fMvGjsZQCYgbJ0DMCaYiQ+wgcZC6s6au5C6w6T9FQBFQBCKFgCFlcxK42JC7IXDwMNJA8NgiHedh34ipR4jdJIKYUQiEbcgdlZh0o62jvCH3iMg8onzTtm4VAUVAEfgvIGDI1921GrI25QyJg9hNniF1UwZb80G9oRZPTUN2csc+CN1MAwyho6x935yrW0VAEVAEFIEnRwCcawjb7BvSthO6c569RcvGDpI2laEATkKaSTf70OaRB0GafSsH+k8RUAQUAUXgiRAwHGzfOhO44V9D9vayptFQGrshcRQEgWNrCN1sDeGbCpTcDRK6VQQUAUXgyRFwRdD2NOybD1oxBI99U87s/x8i0mUH1kFX3AAAAABJRU5ErkJggg==;" parent="1" vertex="1">
          <mxGeometry x="54.5" y="55.5" width="374" height="365" as="geometry" />
        </mxCell>
        <mxCell id="XMBtIWdsb8YOJ49aTZew-1" value="Ellucian&lt;br&gt;Data Connect&lt;br&gt;pipeline API" style="rounded=1;whiteSpace=wrap;html=1;" parent="1" vertex="1">
          <mxGeometry x="590" y="203.5" width="130" height="69" as="geometry" />
        </mxCell>
        <mxCell id="fNgU-JYUXVwHJF4JS1tp-1" value="" style="endArrow=classic;startArrow=classic;html=1;rounded=0;exitX=0.75;exitY=1;exitDx=0;exitDy=0;entryX=0.25;entryY=0;entryDx=0;entryDy=0;" edge="1" parent="1" source="XMBtIWdsb8YOJ49aTZew-1" target="-r5Mu0k7ATpPsQTbyTsy-6">
          <mxGeometry width="50" height="50" relative="1" as="geometry">
            <mxPoint x="800" y="310" as="sourcePoint" />
            <mxPoint x="850" y="260" as="targetPoint" />
            <Array as="points" />
          </mxGeometry>
        </mxCell>
        <mxCell id="fNgU-JYUXVwHJF4JS1tp-2" value="" style="endArrow=classic;html=1;rounded=0;entryX=0.25;entryY=1;entryDx=0;entryDy=0;exitX=0.75;exitY=0;exitDx=0;exitDy=0;" edge="1" parent="1" source="-r5Mu0k7ATpPsQTbyTsy-6" target="-r5Mu0k7ATpPsQTbyTsy-7">
          <mxGeometry width="50" height="50" relative="1" as="geometry">
            <mxPoint x="820" y="560" as="sourcePoint" />
            <mxPoint x="870" y="510" as="targetPoint" />
          </mxGeometry>
        </mxCell>
      </root>
    </mxGraphModel>
  </diagram>
</mxfile>
